<?xml version="1.0" encoding="UTF-8"?>
<svg version="1.1" xmlns="http://www.w3.org/2000/svg" width="1024" height="1024">
<path d="M0 0 C337.92 0 675.84 0 1024 0 C1024 337.92 1024 675.84 1024 1024 C686.08 1024 348.16 1024 0 1024 C0 686.08 0 348.16 0 0 Z " fill="#FAF1E0" transform="translate(0,0)"/>
<path d="M0 0 C1.02766674 -0.00352835 1.02766674 -0.00352835 2.07609442 -0.00712797 C4.38270011 -0.01381003 6.68924936 -0.01335999 8.99586391 -0.01294994 C10.66202154 -0.01624907 12.32817836 -0.01997474 13.99433416 -0.02409142 C18.58169861 -0.03411411 23.16904998 -0.03782865 27.75642383 -0.04048073 C32.70071938 -0.044383 37.64500455 -0.05396142 42.58929348 -0.0626936 C54.53438891 -0.0824605 66.47948519 -0.09252464 78.42459288 -0.10142139 C84.04919516 -0.10580404 89.67379649 -0.11117092 95.29839802 -0.11641026 C113.99507006 -0.13342299 132.69174151 -0.14791718 151.3884201 -0.155159 C156.24083933 -0.1570689 161.09325855 -0.15898923 165.94567776 -0.16094494 C167.15172932 -0.16142868 168.35778088 -0.16191242 169.60037946 -0.16241082 C189.13779947 -0.17071119 208.67515826 -0.19604804 228.21255154 -0.22852562 C248.26932262 -0.26159485 268.32606259 -0.27960765 288.38286108 -0.28280324 C299.6447399 -0.28496849 310.90652944 -0.29371939 322.16838169 -0.31926441 C331.75955189 -0.34096954 341.35061113 -0.34902273 350.94180311 -0.33929763 C355.83429917 -0.33475238 360.72656628 -0.33665237 365.61903095 -0.35605907 C370.10191868 -0.37368733 374.58441037 -0.37269573 379.06730228 -0.35716178 C380.68513836 -0.3547852 382.30300183 -0.35911188 383.92079604 -0.37099043 C397.62069246 -0.46531363 408.49442622 1.76030431 418.83850002 11.38422108 C422.25773572 14.90912851 424.41858564 18.58313484 426.21350002 23.13422108 C426.55498388 23.94974382 426.89646774 24.76526657 427.2482996 25.60550213 C428.54573502 30.34885372 428.49624432 34.78764861 428.48092556 39.683568 C428.48545667 40.74603493 428.48998779 41.80850185 428.49465621 42.90316474 C428.50731667 46.46346341 428.50567873 50.02360942 428.50402737 53.58392811 C428.51001168 56.13674078 428.516817 58.68955164 428.52438259 61.24236012 C428.5402254 67.4579624 428.54649156 73.67350877 428.54760735 79.88912936 C428.54855873 84.94466706 428.55267356 90.00019229 428.5590086 95.05572605 C428.57661936 109.40259046 428.58584804 123.74942497 428.58434765 138.09630026 C428.58426774 138.869361 428.58418783 139.64242175 428.58410549 140.43890858 C428.58402373 141.2129183 428.58394197 141.98692802 428.58385773 142.78439258 C428.58304548 155.31778413 428.60216811 167.85105531 428.63038222 180.38441207 C428.65915211 193.26680989 428.67292018 206.1491491 428.67119467 219.03157985 C428.67053205 226.25867697 428.67596755 233.48564801 428.69755077 240.7127161 C428.71773235 247.51387524 428.717047 254.31472473 428.70251751 261.11591244 C428.70043004 263.6071197 428.70512651 266.09834366 428.71723843 268.58952236 C428.85460637 298.80974092 428.85460637 298.80974092 418.21350002 310.13422108 C413.84624236 314.46654068 409.75182806 317.42306237 404.21350002 320.13422108 C405.06096798 320.14008732 405.90843594 320.14595356 406.78158474 320.15199757 C414.75729979 320.20983425 422.73273208 320.28185837 430.7081728 320.36993599 C434.80872424 320.41471725 438.90917455 320.45395583 443.00988674 320.48065662 C446.96525644 320.50661285 450.92023854 320.54695953 454.87536907 320.59740734 C456.38643616 320.61412835 457.89757037 320.62560994 459.40871716 320.63183498 C461.52098146 320.6414199 463.63224241 320.66940819 465.74426174 320.70184803 C466.94783321 320.71295109 468.15140469 320.72405415 469.39144802 320.73549366 C470.78836376 320.93286373 470.78836376 320.93286373 472.21350002 321.13422108 C475.36725389 325.86485188 474.73411993 330.59612678 474.21350002 336.13422108 C471.34206545 349.10462154 464.54056279 360.22890445 453.58850002 367.82172108 C441.60853814 374.5824444 429.78204324 374.70982779 416.43235683 374.64215565 C414.44153102 374.64677063 412.45070862 374.65312754 410.45989329 374.66106462 C405.01677992 374.67769874 399.57394858 374.66953849 394.13083446 374.65711975 C388.25005051 374.6480474 382.36931412 374.66204979 376.4885397 374.67303944 C364.97924459 374.69080556 353.47005396 374.68699323 341.9607548 374.67538887 C332.6057053 374.66620532 323.25068352 374.66502797 313.89563084 374.66948414 C313.2300468 374.66978968 312.56446276 374.67009522 311.87870952 374.67041002 C309.17664288 374.67165545 306.47457625 374.67292905 303.77250965 374.67424907 C278.44560861 374.68647425 253.11876447 374.67540817 227.79187222 374.65386149 C205.30697745 374.63487806 182.8221733 374.63658065 160.33727932 374.65570545 C135.05408274 374.67713869 109.77093639 374.6856093 84.48773199 374.6732564 C81.79100582 374.67197359 79.09427964 374.67072223 76.39755344 374.66948414 C75.40160602 374.66900967 75.40160602 374.66900967 74.38553844 374.66852563 C64.37346041 374.66398202 54.36142027 374.66931013 44.34934711 374.67940235 C32.96219232 374.69062858 21.5751478 374.68756895 10.18800562 374.66627938 C4.37992769 374.65577782 -1.42796647 374.65163212 -7.23604298 374.66487598 C-12.55624656 374.67682379 -17.87609659 374.67019766 -23.19626825 374.64896578 C-25.11734207 374.6445099 -27.03844596 374.64674306 -28.95950032 374.65646893 C-45.29005337 374.73278343 -58.02862715 372.30516178 -70.47399998 360.94672108 C-79.45615319 351.48524182 -83.13721735 339.46762997 -83.08728123 326.70062733 C-82.78649998 324.13422108 -82.78649998 324.13422108 -80.78649998 321.13422108 C-77.88852024 320.73549366 -77.88852024 320.73549366 -74.13366795 320.70184803 C-73.45062595 320.69165638 -72.76758396 320.68146473 -72.06384373 320.67096424 C-69.80204273 320.64072592 -67.54066442 320.63155228 -65.27868748 320.62250233 C-63.7121142 320.60566358 -62.1455545 320.58751443 -60.57901096 320.56810474 C-56.45266049 320.52051085 -52.32636503 320.49076255 -48.19983006 320.46466541 C-43.99032818 320.43490698 -39.78101612 320.38836059 -35.57165623 320.34320545 C-27.31003052 320.25706567 -19.04838772 320.18976823 -10.78649998 320.13422108 C-11.32266941 319.87520008 -11.85883884 319.61617908 -12.41125584 319.34930897 C-13.12160984 319.00118153 -13.83196384 318.65305408 -14.56384373 318.29437733 C-15.26501316 317.95285633 -15.96618259 317.61133533 -16.68859959 317.25946522 C-25.51822064 312.52354954 -31.31425275 304.02843838 -34.36090279 294.62105179 C-35.97984437 289.07462763 -36.20975509 283.92139563 -36.17418003 278.1730547 C-36.17956557 277.11463161 -36.18495111 276.05620852 -36.19049984 274.96571201 C-36.20473 271.44306642 -36.19768777 267.92079923 -36.19055271 264.39813709 C-36.19625882 261.86281503 -36.20322401 259.32749553 -36.21135044 256.79218006 C-36.227411 250.63491792 -36.22938805 244.47779396 -36.22413754 238.32051725 C-36.22008629 233.31321187 -36.22155069 228.30593658 -36.2268858 223.29863262 C-36.22763422 222.58434491 -36.22838264 221.8700572 -36.22915374 221.13412441 C-36.23068531 219.68277979 -36.23222366 218.23143517 -36.23376871 216.78009056 C-36.24747707 203.18871969 -36.24206765 189.59740647 -36.2305835 176.00603693 C-36.22065145 163.58861598 -36.23359421 151.17134404 -36.25751769 138.75394607 C-36.28193516 125.98329075 -36.29151015 113.21270475 -36.28486496 100.44202656 C-36.2813788 93.28042131 -36.28356491 86.11893062 -36.30111599 78.9573431 C-36.31741724 72.22260342 -36.31261531 65.48819315 -36.29381084 58.75344563 C-36.29012858 56.28600779 -36.29322278 53.81854884 -36.30369663 51.35113049 C-36.3169323 47.97455159 -36.30533505 44.59891031 -36.28770542 41.2223711 C-36.30211293 39.76903137 -36.30211293 39.76903137 -36.3168115 38.28633124 C-36.19480967 26.87545726 -32.10009118 17.53694533 -24.12634373 9.45062733 C-16.94088791 2.88714718 -9.6716652 0.01414645 0 0 Z " fill="#FAF1E0" transform="translate(309.7864999771118,166.86577892303467)"/>
<path d="M0 0 C1.02766674 -0.00352835 1.02766674 -0.00352835 2.07609442 -0.00712797 C4.38270011 -0.01381003 6.68924936 -0.01335999 8.99586391 -0.01294994 C10.66202154 -0.01624907 12.32817836 -0.01997474 13.99433416 -0.02409142 C18.58169861 -0.03411411 23.16904998 -0.03782865 27.75642383 -0.04048073 C32.70071938 -0.044383 37.64500455 -0.05396142 42.58929348 -0.0626936 C54.53438891 -0.0824605 66.47948519 -0.09252464 78.42459288 -0.10142139 C84.04919516 -0.10580404 89.67379649 -0.11117092 95.29839802 -0.11641026 C113.99507006 -0.13342299 132.69174151 -0.14791718 151.3884201 -0.155159 C156.24083933 -0.1570689 161.09325855 -0.15898923 165.94567776 -0.16094494 C167.15172932 -0.16142868 168.35778088 -0.16191242 169.60037946 -0.16241082 C189.13779947 -0.17071119 208.67515826 -0.19604804 228.21255154 -0.22852562 C248.26932262 -0.26159485 268.32606259 -0.27960765 288.38286108 -0.28280324 C299.6447399 -0.28496849 310.90652944 -0.29371939 322.16838169 -0.31926441 C331.75955189 -0.34096954 341.35061113 -0.34902273 350.94180311 -0.33929763 C355.83429917 -0.33475238 360.72656628 -0.33665237 365.61903095 -0.35605907 C370.10191868 -0.37368733 374.58441037 -0.37269573 379.06730228 -0.35716178 C380.68513836 -0.3547852 382.30300183 -0.35911188 383.92079604 -0.37099043 C397.62069246 -0.46531363 408.49442622 1.76030431 418.83850002 11.38422108 C422.25773572 14.90912851 424.41858564 18.58313484 426.21350002 23.13422108 C426.55498388 23.94974382 426.89646774 24.76526657 427.2482996 25.60550213 C428.54573502 30.34885372 428.49624432 34.78764861 428.48092556 39.683568 C428.48545667 40.74603493 428.48998779 41.80850185 428.49465621 42.90316474 C428.50731667 46.46346341 428.50567873 50.02360942 428.50402737 53.58392811 C428.51001168 56.13674078 428.516817 58.68955164 428.52438259 61.24236012 C428.5402254 67.4579624 428.54649156 73.67350877 428.54760735 79.88912936 C428.54855873 84.94466706 428.55267356 90.00019229 428.5590086 95.05572605 C428.57661936 109.40259046 428.58584804 123.74942497 428.58434765 138.09630026 C428.58426774 138.869361 428.58418783 139.64242175 428.58410549 140.43890858 C428.58402373 141.2129183 428.58394197 141.98692802 428.58385773 142.78439258 C428.58304548 155.31778413 428.60216811 167.85105531 428.63038222 180.38441207 C428.65915211 193.26680989 428.67292018 206.1491491 428.67119467 219.03157985 C428.67053205 226.25867697 428.67596755 233.48564801 428.69755077 240.7127161 C428.71773235 247.51387524 428.717047 254.31472473 428.70251751 261.11591244 C428.70043004 263.6071197 428.70512651 266.09834366 428.71723843 268.58952236 C428.85460637 298.80974092 428.85460637 298.80974092 418.21350002 310.13422108 C413.84624236 314.46654068 409.75182806 317.42306237 404.21350002 320.13422108 C405.06096798 320.14008732 405.90843594 320.14595356 406.78158474 320.15199757 C414.75729979 320.20983425 422.73273208 320.28185837 430.7081728 320.36993599 C434.80872424 320.41471725 438.90917455 320.45395583 443.00988674 320.48065662 C446.96525644 320.50661285 450.92023854 320.54695953 454.87536907 320.59740734 C456.38643616 320.61412835 457.89757037 320.62560994 459.40871716 320.63183498 C461.52098146 320.6414199 463.63224241 320.66940819 465.74426174 320.70184803 C466.94783321 320.71295109 468.15140469 320.72405415 469.39144802 320.73549366 C470.78836376 320.93286373 470.78836376 320.93286373 472.21350002 321.13422108 C475.36725389 325.86485188 474.73411993 330.59612678 474.21350002 336.13422108 C471.34206545 349.10462154 464.54056279 360.22890445 453.58850002 367.82172108 C441.60853814 374.5824444 429.78204324 374.70982779 416.43235683 374.64215565 C414.44153102 374.64677063 412.45070862 374.65312754 410.45989329 374.66106462 C405.01677992 374.67769874 399.57394858 374.66953849 394.13083446 374.65711975 C388.25005051 374.6480474 382.36931412 374.66204979 376.4885397 374.67303944 C364.97924459 374.69080556 353.47005396 374.68699323 341.9607548 374.67538887 C332.6057053 374.66620532 323.25068352 374.66502797 313.89563084 374.66948414 C313.2300468 374.66978968 312.56446276 374.67009522 311.87870952 374.67041002 C309.17664288 374.67165545 306.47457625 374.67292905 303.77250965 374.67424907 C278.44560861 374.68647425 253.11876447 374.67540817 227.79187222 374.65386149 C205.30697745 374.63487806 182.8221733 374.63658065 160.33727932 374.65570545 C135.05408274 374.67713869 109.77093639 374.6856093 84.48773199 374.6732564 C81.79100582 374.67197359 79.09427964 374.67072223 76.39755344 374.66948414 C75.40160602 374.66900967 75.40160602 374.66900967 74.38553844 374.66852563 C64.37346041 374.66398202 54.36142027 374.66931013 44.34934711 374.67940235 C32.96219232 374.69062858 21.5751478 374.68756895 10.18800562 374.66627938 C4.37992769 374.65577782 -1.42796647 374.65163212 -7.23604298 374.66487598 C-12.55624656 374.67682379 -17.87609659 374.67019766 -23.19626825 374.64896578 C-25.11734207 374.6445099 -27.03844596 374.64674306 -28.95950032 374.65646893 C-45.29005337 374.73278343 -58.02862715 372.30516178 -70.47399998 360.94672108 C-79.45615319 351.48524182 -83.13721735 339.46762997 -83.08728123 326.70062733 C-82.78649998 324.13422108 -82.78649998 324.13422108 -80.78649998 321.13422108 C-77.88852024 320.73549366 -77.88852024 320.73549366 -74.13366795 320.70184803 C-73.45062595 320.69165638 -72.76758396 320.68146473 -72.06384373 320.67096424 C-69.80204273 320.64072592 -67.54066442 320.63155228 -65.27868748 320.62250233 C-63.7121142 320.60566358 -62.1455545 320.58751443 -60.57901096 320.56810474 C-56.45266049 320.52051085 -52.32636503 320.49076255 -48.19983006 320.46466541 C-43.99032818 320.43490698 -39.78101612 320.38836059 -35.57165623 320.34320545 C-27.31003052 320.25706567 -19.04838772 320.18976823 -10.78649998 320.13422108 C-11.32266941 319.87520008 -11.85883884 319.61617908 -12.41125584 319.34930897 C-13.12160984 319.00118153 -13.83196384 318.65305408 -14.56384373 318.29437733 C-15.26501316 317.95285633 -15.96618259 317.61133533 -16.68859959 317.25946522 C-25.51822064 312.52354954 -31.31425275 304.02843838 -34.36090279 294.62105179 C-35.97984437 289.07462763 -36.20975509 283.92139563 -36.17418003 278.1730547 C-36.17956557 277.11463161 -36.18495111 276.05620852 -36.19049984 274.96571201 C-36.20473 271.44306642 -36.19768777 267.92079923 -36.19055271 264.39813709 C-36.19625882 261.86281503 -36.20322401 259.32749553 -36.21135044 256.79218006 C-36.227411 250.63491792 -36.22938805 244.47779396 -36.22413754 238.32051725 C-36.22008629 233.31321187 -36.22155069 228.30593658 -36.2268858 223.29863262 C-36.22763422 222.58434491 -36.22838264 221.8700572 -36.22915374 221.13412441 C-36.23068531 219.68277979 -36.23222366 218.23143517 -36.23376871 216.78009056 C-36.24747707 203.18871969 -36.24206765 189.59740647 -36.2305835 176.00603693 C-36.22065145 163.58861598 -36.23359421 151.17134404 -36.25751769 138.75394607 C-36.28193516 125.98329075 -36.29151015 113.21270475 -36.28486496 100.44202656 C-36.2813788 93.28042131 -36.28356491 86.11893062 -36.30111599 78.9573431 C-36.31741724 72.22260342 -36.31261531 65.48819315 -36.29381084 58.75344563 C-36.29012858 56.28600779 -36.29322278 53.81854884 -36.30369663 51.35113049 C-36.3169323 47.97455159 -36.30533505 44.59891031 -36.28770542 41.2223711 C-36.30211293 39.76903137 -36.30211293 39.76903137 -36.3168115 38.28633124 C-36.19480967 26.87545726 -32.10009118 17.53694533 -24.12634373 9.45062733 C-16.94088791 2.88714718 -9.6716652 0.01414645 0 0 Z M-8.78649998 31.13422108 C-10.54073137 34.02853928 -11.03750017 36.15741095 -11.04376888 39.52402592 C-11.05021778 40.40138881 -11.05666667 41.2787517 -11.06331098 42.18270135 C-11.06021378 43.14222105 -11.05711657 44.10174075 -11.05392551 45.0903368 C-11.05845663 46.11308161 -11.06298774 47.13582643 -11.06765616 48.18956351 C-11.0803476 51.62721625 -11.07867671 55.06471152 -11.07702732 58.50238514 C-11.08300966 60.96287204 -11.08981452 63.42335707 -11.09738255 65.88383961 C-11.11324139 71.88046883 -11.11949232 77.87703581 -11.1206073 83.8736802 C-11.12155772 88.74909436 -11.12566772 93.62449554 -11.13200855 98.49990559 C-11.14962346 112.3254739 -11.15884723 126.15101117 -11.1573476 139.97659078 C-11.15726769 140.72196327 -11.15718778 141.46733576 -11.15710545 142.2352953 C-11.15702368 142.98157911 -11.15694192 143.72786293 -11.15685768 144.49676141 C-11.15604508 156.5867939 -11.17517563 168.67670172 -11.20338218 180.76669815 C-11.23212217 193.18344856 -11.24592181 205.6001382 -11.24419463 218.01692271 C-11.24353103 224.98682369 -11.24900976 231.95659403 -11.27055073 238.92646503 C-11.29068429 245.48296644 -11.29007736 252.03923925 -11.27551746 258.59577084 C-11.27342455 261.00157861 -11.27815884 263.40740352 -11.29023838 265.81318188 C-11.30566804 269.09916975 -11.29639672 272.38420354 -11.2809763 275.67017078 C-11.29126342 276.6207676 -11.30155055 277.57136441 -11.31214941 278.55076718 C-11.25195572 284.36093908 -10.55591414 289.50521219 -6.78649998 294.13422108 C-2.41564711 297.6627952 0.50677204 298.63454314 6.08827114 298.63758564 C7.09378822 298.64630628 7.09378822 298.64630628 8.11961877 298.6552031 C10.36425234 298.66979288 12.60779059 298.65592385 14.85241604 298.64215565 C16.47849524 298.646765 18.10457028 298.65311814 19.7306366 298.66106462 C24.19783025 298.6777765 28.66468248 298.66950318 33.13187742 298.65711975 C37.94995129 298.64807918 42.76796595 298.66203405 47.5860281 298.67303944 C57.02414983 298.69083985 66.46214443 298.68697789 75.90027118 298.67538887 C83.56980576 298.66636082 91.23930467 298.66512783 98.90884304 298.66948414 C99.99979009 298.67009707 101.09073714 298.67071 102.2147432 298.67134151 C104.43087762 298.67262039 106.64701203 298.67391724 108.86314642 298.67523187 C129.65114814 298.68664213 150.43907934 298.67351696 171.2270695 298.65203041 C189.06991239 298.63415903 206.9126512 298.63726302 224.75549221 298.65570545 C245.46834782 298.67710428 266.18114161 298.68554345 286.89400673 298.6732564 C289.10205681 298.67198218 291.3101069 298.6707247 293.51815701 298.66948414 C294.60460225 298.66886704 295.6910475 298.66824993 296.81041533 298.66761413 C304.47206451 298.66415827 312.13367453 298.66999467 319.79531765 298.67940235 C329.130418 298.69061273 338.46538378 298.68760251 347.80046868 298.66627938 C352.56475593 298.65575604 357.3288187 298.651669 362.09310436 298.66487598 C366.45293272 298.67677913 370.81232814 298.67027178 375.17211711 298.64896578 C376.75076458 298.64449088 378.32944848 298.64678588 379.90807259 298.65646893 C382.0521465 298.66861338 384.19473289 298.65618008 386.3387289 298.63758564 C387.53007663 298.63693623 388.72142435 298.63628682 389.94887352 298.63561773 C394.70529252 297.90510459 397.82749582 295.66360503 401.02600002 292.13422108 C403.024744 288.76791542 403.33859638 285.60441258 403.3477211 281.73882961 C403.35440787 280.42093518 403.35440787 280.42093518 403.36122972 279.07641661 C403.36104536 278.11553267 403.36086099 277.15464874 403.36067104 276.1646471 C403.36618608 274.62841318 403.36618608 274.62841318 403.37181252 273.06114423 C403.38285263 269.61886403 403.38669373 266.176614 403.39050198 262.73431873 C403.39676623 260.2705879 403.40341299 257.80685801 403.4104147 255.34312916 C403.4296403 247.94389062 403.44024113 240.5446601 403.44914249 233.14540392 C403.45352752 229.66048822 403.45889365 226.17557403 403.46413136 222.69065952 C403.48113901 211.10629625 403.4956343 199.52193392 403.5028801 187.93756008 C403.50478996 184.93280123 403.5067103 181.92804239 403.50866604 178.92328358 C403.50914978 178.17647514 403.50963352 177.4296667 403.51013192 176.6602277 C403.51843656 164.55591734 403.54378284 152.45170566 403.57624672 140.34743841 C403.60930729 127.91940443 403.62732781 115.49142064 403.63052434 103.06334245 C403.63269001 96.08567167 403.64144732 89.10814494 403.66698551 82.13051701 C403.69094518 75.56910935 403.69452456 69.00791461 403.68422413 62.44645596 C403.68372718 60.03657831 403.69009404 57.62668816 403.70378017 55.21684933 C403.72140391 51.93017309 403.71443923 48.6444383 403.70124722 45.35776234 C403.71221646 44.40133984 403.72318571 43.44491735 403.73448735 42.45951235 C403.68024824 36.87301101 403.09374299 33.46763123 399.21350002 29.13422108 C395.21795309 26.18944059 392.35418594 25.75756881 387.4333353 25.75111103 C386.42493327 25.74367176 386.42493327 25.74367176 385.39615947 25.7360822 C383.13912789 25.72310885 380.88268623 25.73151592 378.62563992 25.7398119 C376.99288827 25.7349238 375.36014008 25.72873437 373.7273978 25.72135401 C369.23713377 25.70492096 364.74704493 25.70727924 360.25676131 25.71272898 C355.41547558 25.71539503 350.574237 25.70087536 345.73297024 25.68863392 C336.24694458 25.66755976 326.76098001 25.6630402 317.27493371 25.6648218 C309.56581783 25.66612843 301.85672104 25.66233036 294.14760876 25.65489674 C291.92863906 25.65279758 289.70966935 25.65069998 287.49069965 25.64860392 C286.38632174 25.64756039 285.28194384 25.64651686 284.14409994 25.64544171 C263.24831185 25.62653132 242.35255886 25.62759199 221.45676576 25.63441104 C202.33377225 25.63998708 183.21091269 25.61915983 164.08795048 25.58605057 C144.46056145 25.55233125 124.83323661 25.53714305 105.20581806 25.5417676 C94.18328572 25.54401407 83.16087719 25.53874318 72.13836956 25.51387501 C62.7545872 25.49288461 53.37099653 25.48924743 43.98720635 25.5081746 C39.19844589 25.51734638 34.41004305 25.51843138 29.62131023 25.49781895 C25.23788273 25.47915958 20.85510701 25.4835555 16.47170471 25.50636476 C14.88560191 25.51056331 13.29944963 25.50630843 11.71339907 25.49276882 C0.39791378 25.23072216 0.39791378 25.23072216 -8.78649998 31.13422108 Z " fill="#033E5D" transform="translate(309.7864999771118,166.86577892303467)"/>
<path d="M0 0 C0.98870087 0.00081573 0.98870087 0.00081573 1.99737549 0.00164795 C12.97183444 0.04316377 23.00222351 0.97705001 33.4375 4.375 C34.12440918 4.59462402 34.81131836 4.81424805 35.51904297 5.04052734 C64.35669868 14.50570911 89.38477852 34.43673266 103.54052734 61.48242188 C108.86832736 72.12378279 112.18242911 82.71743014 114.4375 94.375 C114.6125708 95.16318115 114.7876416 95.9513623 114.96801758 96.76342773 C119.76471351 123.44582837 112.1539937 153.02584088 97.4375 175.375 C94.94315855 178.88236901 92.27681978 182.14347846 89.4375 185.375 C88.77492188 186.18066406 88.11234375 186.98632812 87.4296875 187.81640625 C69.22662854 209.27720824 40.6862732 223.40557702 12.78564453 226.18969727 C-18.6764421 228.67251321 -48.1425469 219.38004632 -72.5625 199.375 C-73.41328125 198.68921875 -74.2640625 198.0034375 -75.140625 197.296875 C-85.18401057 188.76947216 -93.33351142 177.95359054 -99.5625 166.375 C-100.06265625 165.4778125 -100.5628125 164.580625 -101.078125 163.65625 C-115.15105295 137.21620356 -116.71997735 106.84351254 -108.22363281 78.39257812 C-98.83412958 49.73864359 -78.63433484 25.84679936 -51.8125 12.125 C-35.18211393 3.96036343 -18.52900524 -0.02590152 0 0 Z " fill="#F33223" transform="translate(502.5625,215.625)"/>
<path d="M0 0 C0 14.19 0 28.38 0 43 C-5.61 44.32 -11.22 45.64 -17 47 C-35.63527539 53.69422514 -48.26073007 65.42031118 -57 83 C-64.4155434 98.82423993 -65.51145835 116.7730364 -60.31640625 133.48046875 C-52.94174173 153.1973018 -40.97109471 166.67864774 -21.984375 175.75390625 C-17.42424526 177.65793948 -12.80413762 178.88717716 -8 180 C-5.36 180.66 -2.72 181.32 0 182 C0 196.52 0 211.04 0 226 C-14.05446257 226 -14.05446257 226 -21.25 224.375 C-22.05791992 224.19678711 -22.86583984 224.01857422 -23.69824219 223.83496094 C-42.37118139 219.50553486 -59.17801679 211.14230263 -74 199 C-74.85078125 198.31421875 -75.7015625 197.6284375 -76.578125 196.921875 C-86.62151057 188.39447216 -94.77101142 177.57859054 -101 166 C-101.50015625 165.1028125 -102.0003125 164.205625 -102.515625 163.28125 C-116.58855295 136.84120356 -118.15747735 106.46851254 -109.66113281 78.01757812 C-100.27162958 49.36364359 -80.07183484 25.47179936 -53.25 11.75 C-35.69594208 3.1318896 -19.68853495 0 0 0 Z " fill="#018139" transform="translate(504,216)"/>
<path d="M0 0 C54.23832924 0 54.23832924 0 66.7109375 11.58984375 C79.94059313 25.86041138 80.70618779 47.04358855 80.13623047 65.48046875 C79.30386715 80.8747151 75.79556091 96.7222661 64.2265625 107.6796875 C46.58553143 122.1525334 20.40620906 117 0 117 C0 78.39 0 39.78 0 0 Z " fill="#014B7B" transform="translate(424,698)"/>
<path d="M0 0 C0.495 1.485 0.495 1.485 1 3 C1.54785156 2.95359375 2.09570312 2.9071875 2.66015625 2.859375 C20.84789107 2.03131553 38.129281 11.00562142 51.546875 22.60546875 C55.98588005 26.93844661 59.16203969 31.52679083 62 37 C62 37.99 62 38.98 62 40 C61.62230469 39.50371094 61.24460937 39.00742187 60.85546875 38.49609375 C52.32970907 27.97366904 40.37329143 21.80902931 27 20 C24.79521533 19.83717692 22.58526171 19.73577008 20.375 19.6875 C19.26898437 19.65011719 18.16296875 19.61273438 17.0234375 19.57421875 C11.54323501 20.00862249 11.54323501 20.00862249 1 24 C0.67 56.34 0.34 88.68 0 122 C17.15203113 125.81156247 32.12948893 126.91728891 47.8046875 117.546875 C54.22652584 113.02187859 60.11542615 107.88629 64 101 C64.33 101.66 64.66 102.32 65 103 C63.28485544 106.81697625 61.10855627 110.38826371 59 114 C58.38125 115.0725 57.7625 116.145 57.125 117.25 C54.18015671 121.06097367 50.73240799 123.97852686 47 127 C46.03707031 127.79277344 46.03707031 127.79277344 45.0546875 128.6015625 C31.0550142 139.65393616 15.5764875 142.94961376 -2 142 C-15.5901158 140.15997366 -27.22009626 135.44121276 -38 127 C-38.69867188 126.46632813 -39.39734375 125.93265625 -40.1171875 125.3828125 C-52.89610865 114.99061593 -62.0561813 98.31419262 -64 82 C-65.50284847 62.5464615 -61.80824437 44.83419211 -49.796875 29.1171875 C-47.62174514 26.63023833 -45.36816395 24.30283529 -43 22 C-42.31421875 21.29359375 -41.6284375 20.5871875 -40.921875 19.859375 C-29.93322633 9.19631592 -15.0745474 3.93013165 0 3 C0 2.01 0 1.02 0 0 Z " fill="#D62725" transform="translate(504,256)"/>
<path d="M0 0 C12.3878418 8.21978861 19.43313926 19.69707101 23.109375 34.05078125 C25.57977032 50.6947578 22.41291871 66.88626197 12.49609375 80.65625 C4.24707283 90.7917414 -7.74153203 97.10862777 -20.50390625 99.65625 C-30.43081698 100.37319355 -39.12103614 98.78387337 -48.50390625 95.65625 C-48.50390625 63.31625 -48.50390625 30.97625 -48.50390625 -2.34375 C-32.13996446 -9.61661302 -15.63923386 -9.26096867 0 0 Z " fill="#FAEFDF" transform="translate(552.50390625,282.34375)"/>
<path d="M0 0 C23.1 0 46.2 0 70 0 C70 22.42480862 70 22.42480862 64.015625 30.52734375 C60.33399194 35.79991443 57.34364545 41.45705041 54.28115845 47.10147095 C52.56207139 50.26658756 50.82555897 53.42210568 49.08984375 56.578125 C48.74684738 57.20253983 48.40385101 57.82695465 48.05046082 58.47029114 C43.28491195 67.13541896 38.39921864 75.73302995 33.50708008 84.32714844 C31.31915299 88.20750252 29.16338379 92.10590918 27 96 C42.18 96.33 57.36 96.66 73 97 C73 103.6 73 110.2 73 117 C48.25 117 23.5 117 -2 117 C-2 95.23794484 -2 95.23794484 3.625 87.3125 C4.82874075 85.45306306 6.03049423 83.59233842 7.23046875 81.73046875 C7.8548584 80.79122559 8.47924805 79.85198242 9.12255859 78.88427734 C12.25224513 74.07619974 15.07922672 69.0974406 17.9375 64.125 C19.09913048 62.12955012 20.26189917 60.13476243 21.42578125 58.140625 C23.90575404 53.88218294 26.38141083 49.62125579 28.85546875 45.359375 C29.48654541 44.27382324 30.11762207 43.18827148 30.76782227 42.06982422 C31.97435973 39.99426891 33.17936308 37.91782079 34.38256836 35.84033203 C34.92921143 34.90044434 35.47585449 33.96055664 36.0390625 32.9921875 C36.51553223 32.17089355 36.99200195 31.34959961 37.48291016 30.50341797 C39.23403381 27.61381032 41.12578087 24.8113287 43 22 C28.81 21.67 14.62 21.34 0 21 C0 14.07 0 7.14 0 0 Z " fill="#014C7B" transform="translate(514,698)"/>
<path d="M0 0 C6.93 0 13.86 0 21 0 C24.96 15.51 28.92 31.02 33 47 C34.0725 42.215 35.145 37.43 36.25 32.5 C38.69589705 21.62827426 41.21874759 10.79125937 44 0 C50.93 0 57.86 0 65 0 C65 24.42 65 48.84 65 74 C60.38 74 55.76 74 51 74 C50.67 58.49 50.34 42.98 50 27 C46.04 42.51 42.08 58.02 38 74 C34.37 74 30.74 74 27 74 C25.77265422 69.23532746 24.54587335 64.47050994 23.31958008 59.70556641 C22.9037137 58.08996809 22.48770208 56.47440714 22.0715332 54.85888672 C21.46786423 52.51540162 20.86474576 50.17177537 20.26171875 47.828125 C20.08033859 47.12447815 19.89895844 46.4208313 19.71208191 45.69586182 C18.11133742 39.47096832 16.55900634 33.23602537 15 27 C14.67 42.51 14.34 58.02 14 74 C9.38 74 4.76 74 0 74 C0 49.58 0 25.16 0 0 Z " fill="#044B7B" transform="translate(253,594)"/>
<path d="M0 0 C7.41907375 5.33581935 10.63945676 12.27073263 12.34375 21.05078125 C14.49757903 35.67126474 14.148738 50.77015598 5.828125 63.45703125 C1.98417662 68.27094791 -2.80354149 71.27304483 -8.84375 72.55078125 C-17.58178403 73.44947146 -25.1232961 72.33366659 -32.10546875 66.73828125 C-41.57907382 57.21214232 -42.1929947 46.17447487 -42.34375 33.42578125 C-42.36244141 32.32951416 -42.38113281 31.23324707 -42.40039062 30.10375977 C-42.32306555 20.21135486 -40.05553066 9.81934758 -32.84375 2.55078125 C-23.13872923 -4.88779754 -10.82218247 -6.2368097 0 0 Z " fill="#034B7A" transform="translate(780.84375,596.44921875)"/>
<path d="M0 0 C33.92752101 0 33.92752101 0 42.3125 8.046875 C51.92392179 19.17120577 50.98771636 35.2300719 50 49 C48.6438045 57.08032649 45.4359578 63.77314582 39 69 C26.62772285 76.27905842 14.91202801 74 0 74 C0 49.58 0 25.16 0 0 Z " fill="#024878" transform="translate(194,594)"/>
<path d="M0 0 C35.85211916 0 35.85211916 0 43.55859375 7.27734375 C47.7358189 12.26963722 48.56130132 18.11144971 48.35546875 24.47265625 C47.50856104 30.49407703 44.89804024 36.24483581 40 40 C39.34 40 38.68 40 38 40 C38.39324463 41.17187866 38.39324463 41.17187866 38.79443359 42.36743164 C39.77597756 45.29491583 40.75612183 48.22286402 41.73535156 51.15112305 C42.36417107 53.03014133 42.99457176 54.90863023 43.625 56.78710938 C44.02460937 57.98271484 44.42421875 59.17832031 44.8359375 60.41015625 C45.20251465 61.50465088 45.5690918 62.59914551 45.94677734 63.72680664 C47.04103459 67.12752683 48.01857644 70.56501754 49 74 C44.05 74 39.1 74 34 74 C32.71406128 70.21107341 31.43091712 66.42137473 30.15478516 62.62915039 C29.71988772 61.33953841 29.28337578 60.05046971 28.84521484 58.76196289 C28.21547426 56.9091547 27.59202743 55.05421111 26.96875 53.19921875 C26.59169922 52.08377686 26.21464844 50.96833496 25.82617188 49.8190918 C25 47 25 47 25 44 C21.37 44 17.74 44 14 44 C14 53.9 14 63.8 14 74 C9.38 74 4.76 74 0 74 C0 49.58 0 25.16 0 0 Z " fill="#014C7B" transform="translate(549,594)"/>
<path d="M0 0 C5.61 0 11.22 0 17 0 C19.38602494 5.17708733 21.77041839 10.35492173 24.15332031 15.53344727 C24.96374726 17.29406904 25.77461526 19.05448787 26.5859375 20.81469727 C27.75377276 23.34858493 28.92000643 25.88320444 30.0859375 28.41796875 C30.44746918 29.20149216 30.80900085 29.98501556 31.18148804 30.7922821 C31.52168976 31.53267227 31.86189148 32.27306244 32.21240234 33.03588867 C32.50996429 33.68208664 32.80752625 34.32828461 33.11410522 34.99406433 C34.13446108 37.30446085 35.06198609 39.65496523 36 42 C36.33 28.14 36.66 14.28 37 0 C41.62 0 46.24 0 51 0 C51 24.42 51 48.84 51 74 C46.05 74 41.1 74 36 74 C31.86433779 65.86897091 28.00693782 57.67929461 24.375 49.3125 C23.44543585 47.18353989 22.51575047 45.0546327 21.5859375 42.92578125 C21.1842334 42.00192627 20.7825293 41.07807129 20.36865234 40.1262207 C18.5958194 36.07678691 16.79533649 32.0395071 15 28 C14.67 43.18 14.34 58.36 14 74 C9.38 74 4.76 74 0 74 C0 49.58 0 25.16 0 0 Z " fill="#034D7B" transform="translate(355,594)"/>
<path d="M0 0 C12.35353359 8.19702386 19.76485023 19.86695835 23.11328125 34.3203125 C23.63739132 37.51845351 23.73134538 40.42154002 23.49609375 43.65625 C22.50609375 44.97625 21.51609375 46.29625 20.49609375 47.65625 C12.24609375 44.68625 3.99609375 41.71625 -4.50390625 38.65625 C-4.99890625 25.78625 -4.99890625 25.78625 -5.50390625 12.65625 C-9.98435518 18.85827062 -9.98435518 18.85827062 -14.44848633 25.07202148 C-15.00947021 25.84102783 -15.5704541 26.61003418 -16.1484375 27.40234375 C-16.71925049 28.19310303 -17.29006348 28.9838623 -17.87817383 29.79858398 C-19.50390625 31.65625 -19.50390625 31.65625 -22.50390625 32.65625 C-24.95581055 32.03540039 -24.95581055 32.03540039 -27.828125 31.00390625 C-29.37016602 30.45766602 -29.37016602 30.45766602 -30.94335938 29.90039062 C-32.01521484 29.51044922 -33.08707031 29.12050781 -34.19140625 28.71875 C-35.27486328 28.33267578 -36.35832031 27.94660156 -37.47460938 27.54882812 C-40.15405971 26.5927247 -42.83019065 25.62825143 -45.50390625 24.65625 C-41.54489255 30.69631586 -37.40103442 36.48919693 -32.9453125 42.17578125 C-31.50390625 44.65625 -31.50390625 44.65625 -31.74584961 46.57250977 C-32.59601939 48.90944987 -33.6736292 50.50912906 -35.19140625 52.4765625 C-35.72507812 53.17652344 -36.25875 53.87648438 -36.80859375 54.59765625 C-37.36804688 55.31824219 -37.9275 56.03882813 -38.50390625 56.78125 C-39.60935461 58.22037056 -40.71358094 59.66043087 -41.81640625 61.1015625 C-42.30753906 61.73594238 -42.79867188 62.37032227 -43.3046875 63.02392578 C-44.57358427 64.65464576 -44.57358427 64.65464576 -45.50390625 66.65625 C-44.18390625 66.98625 -42.86390625 67.31625 -41.50390625 67.65625 C-43.97890625 68.15125 -43.97890625 68.15125 -46.50390625 68.65625 C-46.50390625 77.23625 -46.50390625 85.81625 -46.50390625 94.65625 C-45.84390625 94.98625 -45.18390625 95.31625 -44.50390625 95.65625 C-45.82390625 95.65625 -47.14390625 95.65625 -48.50390625 95.65625 C-48.50390625 63.31625 -48.50390625 30.97625 -48.50390625 -2.34375 C-32.13996446 -9.61661302 -15.63923386 -9.26096867 0 0 Z " fill="#FAEFDF" transform="translate(552.50390625,282.34375)"/>
<path d="M0 0 C5.28 0 10.56 0 16 0 C23.25652731 14.09440881 29.61462143 28.48777598 36 43 C36.33 28.81 36.66 14.62 37 0 C41.29 0 45.58 0 50 0 C50 24.42 50 48.84 50 74 C45.05 74 40.1 74 35 74 C34.15236084 72.07752441 34.15236084 72.07752441 33.28759766 70.11621094 C31.19011688 65.359752 29.09134686 60.60386287 26.9921875 55.84814453 C26.08395798 53.79003156 25.17607784 51.73176438 24.26855469 49.67333984 C22.96381045 46.71411139 21.65780947 43.75544038 20.3515625 40.796875 C19.94628326 39.87694763 19.54100403 38.95702026 19.1234436 38.00921631 C18.74320038 37.1486261 18.36295715 36.28803589 17.97119141 35.40136719 C17.63809967 34.64635925 17.30500793 33.89135132 16.96182251 33.11346436 C16.02387961 31.05247195 15.01266249 29.02532497 14 27 C14 42.51 14 58.02 14 74 C9.38 74 4.76 74 0 74 C0 49.58 0 25.16 0 0 Z " fill="#014B7B" transform="translate(803,594)"/>
<path d="M0 0 C1.2452243 -0.00281982 2.49044861 -0.00563965 3.77340698 -0.00854492 C5.1660768 -0.00660033 6.55874648 -0.00455214 7.95141602 -0.00241089 C9.40805098 -0.00376489 10.86468561 -0.00554481 12.32131958 -0.00772095 C16.28815163 -0.01229548 20.25495779 -0.01050564 24.22179031 -0.00734186 C28.36400678 -0.00481836 32.50622095 -0.00715577 36.6484375 -0.00872803 C43.60587972 -0.01054975 50.56331134 -0.00814334 57.52075195 -0.00338745 C65.57609755 0.00205518 73.63141783 0.00029252 81.68676281 -0.00521386 C88.590353 -0.0097449 95.49393555 -0.01039558 102.39752674 -0.00777519 C106.52624235 -0.00621237 110.65494604 -0.00601879 114.78366089 -0.00931168 C118.66431748 -0.01219027 122.5449413 -0.01021492 126.42559433 -0.00441742 C127.85390035 -0.00308976 129.28220912 -0.00348404 130.71051407 -0.00568008 C132.65222325 -0.00839131 134.59393843 -0.00439701 136.53564453 0 C137.62482681 0.00037703 138.71400909 0.00075405 139.8361969 0.0011425 C142.26782227 0.12698364 142.26782227 0.12698364 143.26782227 1.12698364 C143.40513508 5.78581112 142.92944876 9.86741564 139.95532227 13.56448364 C135.96515941 17.36905752 133.35869325 18.37278614 127.86737061 18.41459656 C126.22308327 18.43389473 126.22308327 18.43389473 124.545578 18.45358276 C122.74858208 18.45929291 122.74858208 18.45929291 120.9152832 18.46511841 C119.6498317 18.47665451 118.38438019 18.48819061 117.08058167 18.50007629 C113.61139717 18.53054905 110.14227894 18.54759202 106.67298794 18.56029248 C104.50330799 18.56838575 102.33364691 18.57856667 100.16397858 18.58930779 C93.36911385 18.62201918 86.5742952 18.64592117 79.77936244 18.65812165 C71.94753191 18.67236881 64.11660371 18.71621884 56.28507209 18.78562313 C50.22375752 18.83747873 44.16269894 18.86230057 38.10116601 18.86694378 C34.48441651 18.87033533 30.86857996 18.8850865 27.25206757 18.92822456 C23.21346072 18.97555455 19.17680144 18.96684106 15.13793945 18.95339966 C13.94803909 18.9754245 12.75813873 18.99744934 11.53218079 19.0201416 C4.52366269 18.94095453 0.71706992 17.91371831 -4.2820549 12.88552761 C-6.10689125 10.67257373 -7.20882176 8.96805894 -7.73217773 6.12698364 C-7.03946727 0.03113157 -5.88447539 0.00203694 0 0 Z " fill="#F3EDDF" transform="translate(436.732177734375,492.8730163574219)"/>
<path d="M0 0 C5.61 0 11.22 0 17 0 C19.62833968 7.6158672 21.84510839 15.32405072 24.01171875 23.08203125 C24.38852863 24.42723372 24.76538596 25.77242289 25.14228821 27.11759949 C25.92633997 29.91835563 26.70848215 32.71963719 27.48950195 35.52124023 C28.48981454 39.10813089 29.49701062 42.69305004 30.50586224 46.27754688 C31.28402975 49.04665652 32.05752656 51.81705484 32.82972145 54.58783531 C33.19923017 55.91077313 33.57042844 57.23324027 33.9433651 58.55521584 C34.46283068 60.39847366 34.97510759 62.24375281 35.48706055 64.08911133 C35.78001511 65.13674149 36.07296967 66.18437164 36.37480164 67.26374817 C37 70 37 70 37 74 C32.05 74 27.1 74 22 74 C19 63.5 19 63.5 19 59 C12.07 59 5.14 59 -2 59 C-2.33 61.97 -2.66 64.94 -3 68 C-3.66 69.98 -4.32 71.96 -5 74 C-9.62 74 -14.24 74 -19 74 C-18.33272892 66.20404952 -16.24549672 58.82435132 -14.21875 51.2890625 C-13.84103368 49.87049749 -13.46372097 48.45182496 -13.08679199 47.03305054 C-12.29985895 44.07536008 -11.5094716 41.1186234 -10.71630859 38.16259766 C-9.69901015 34.37091398 -8.68831132 30.57751085 -7.67989349 26.7834568 C-6.90279009 23.86110798 -6.12332952 20.9393924 -5.34303284 18.01789474 C-4.96936857 16.61855165 -4.59618717 15.21907952 -4.22349548 13.81947708 C-3.70397149 11.87075202 -3.18116785 9.92290218 -2.65820312 7.97509766 C-2.36143677 6.86671539 -2.06467041 5.75833313 -1.75891113 4.61636353 C-1 2 -1 2 0 0 Z " fill="#024979" transform="translate(624,594)"/>
<path d="M0 0 C5.61 0 11.22 0 17 0 C21.93866908 16.37842255 26.45808808 32.86615422 30.9375 49.375 C31.38529312 51.02048828 31.38529312 51.02048828 31.84213257 52.69921875 C32.69841687 55.84818641 33.55102769 58.99812351 34.40234375 62.1484375 C34.66452698 63.11204193 34.92671021 64.07564636 35.19683838 65.06845093 C35.55367706 66.39460922 35.55367706 66.39460922 35.91772461 67.74755859 C36.12755478 68.5234433 36.33738495 69.299328 36.55357361 70.09872437 C37 72 37 72 37 74 C32.05 74 27.1 74 22 74 C20 68 20 68 18 60 C11.4 59.67 4.8 59.34 -2 59 C-2.33 61.64 -2.66 64.28 -3 67 C-3.55345979 69.39159267 -4.26670653 71.65346091 -5 74 C-9.62 74 -14.24 74 -19 74 C-18.33272892 66.20404952 -16.24549672 58.82435132 -14.21875 51.2890625 C-13.84103368 49.87049749 -13.46372097 48.45182496 -13.08679199 47.03305054 C-12.29985895 44.07536008 -11.5094716 41.1186234 -10.71630859 38.16259766 C-9.69901015 34.37091398 -8.68831132 30.57751085 -7.67989349 26.7834568 C-6.90279009 23.86110798 -6.12332952 20.9393924 -5.34303284 18.01789474 C-4.96936857 16.61855165 -4.59618717 15.21907952 -4.22349548 13.81947708 C-3.70397149 11.87075202 -3.18116785 9.92290218 -2.65820312 7.97509766 C-2.36143677 6.86671539 -2.06467041 5.75833313 -1.75891113 4.61636353 C-1 2 -1 2 0 0 Z " fill="#024A7A" transform="translate(151,594)"/>
<path d="M0 0 C0 32.01 0 64.02 0 97 C-10.65612578 93.44795807 -19.17250633 85.68750557 -24.76171875 75.921875 C-31.27166057 62.61826507 -33.4911564 47.69084871 -29.375 33.25 C-25.48962915 22.25265276 -14.14581247 0 0 0 Z " fill="#018137" transform="translate(504,280)"/>
<path d="M0 0 C17.27819549 0 17.27819549 0 22.93359375 4.55859375 C30.89976887 12.52476887 31.37723163 23.399385 31.41015625 34.1328125 C31.39855469 35.40898438 31.38695312 36.68515625 31.375 38 C31.38660156 39.27617188 31.39820313 40.55234375 31.41015625 41.8671875 C31.37799484 52.35180558 30.47692422 63.36410103 24 72 C16.34641573 77.82959923 9.81380659 77 0 77 C0 51.59 0 26.18 0 0 Z " fill="#F9F1E2" transform="translate(448,718)"/>
<path d="M0 0 C4.4718879 3.48379422 8.24993838 7.76929711 9.71484375 13.3359375 C9.71484375 14.9859375 9.71484375 16.6359375 9.71484375 18.3359375 C5.09484375 18.3359375 0.47484375 18.3359375 -4.28515625 18.3359375 C-4.75953125 17.0365625 -5.23390625 15.7371875 -5.72265625 14.3984375 C-7.02878071 11.76278132 -7.67230674 10.59344675 -10.4140625 9.44140625 C-14.25922702 8.86494831 -16.48372732 8.84726132 -19.84765625 10.8984375 C-21.72461904 14.08111353 -21.95382067 15.69543122 -21.28515625 19.3359375 C-17.2746857 24.37928578 -12.62629827 26.13544602 -6.78515625 28.3359375 C2.23308739 31.73331566 7.31089173 35.52803345 11.71484375 44.3359375 C12.41039159 51.74751283 12.34329284 58.25515982 7.71484375 64.3359375 C2.84707925 69.61622442 -1.77665556 71.98728942 -9.01953125 72.70703125 C-18.25796293 72.98905975 -25.78577217 72.36506546 -32.9296875 65.83203125 C-36.96392091 61.00722761 -37.45899146 55.41951458 -38.28515625 49.3359375 C-33.33515625 49.3359375 -28.38515625 49.3359375 -23.28515625 49.3359375 C-22.62515625 51.6459375 -21.96515625 53.9559375 -21.28515625 56.3359375 C-19.35389523 59.01432323 -19.35389523 59.01432323 -16.28515625 60.3359375 C-12.38102532 60.54864059 -8.72074995 60.46157347 -5.56640625 57.98828125 C-3.44069701 55.24689403 -3.402363 52.73493335 -3.28515625 49.3359375 C-4.34939495 46.3457093 -5.45896756 44.76819653 -8.29541016 43.28417969 C-10.85411156 42.24909457 -13.42870197 41.3065771 -16.03515625 40.3984375 C-24.11425432 37.56957202 -30.41251008 34.75946013 -35.1953125 27.39453125 C-37.35757158 21.32625577 -37.35206781 14.26807695 -35.6640625 8.046875 C-33.30792474 3.29271258 -28.99510499 0.45848423 -24.28515625 -1.6640625 C-16.47714356 -3.69362871 -7.10631752 -4.23674744 0 0 Z " fill="#024878" transform="translate(478.28515625,595.6640625)"/>
<path d="M0 0 C0.33 0 0.66 0 1 0 C1 8.91 1 17.82 1 27 C3.64 27.66 6.28 28.32 9 29 C10.50884459 29.47539348 12.01125342 29.9727942 13.5 30.5078125 C14.24121094 30.77207031 14.98242188 31.03632813 15.74609375 31.30859375 C16.48988281 31.57800781 17.23367188 31.84742188 18 32.125 C18.77472656 32.40214844 19.54945313 32.67929687 20.34765625 32.96484375 C22.23298801 33.63983907 24.11667206 34.31943377 26 35 C23.38109813 36.74593458 21.59019243 37.5793104 18.65625 38.5078125 C17.40521484 38.90419922 17.40521484 38.90419922 16.12890625 39.30859375 C15.26136719 39.57800781 14.39382813 39.84742188 13.5 40.125 C12.63246094 40.40214844 11.76492188 40.67929687 10.87109375 40.96484375 C4.38465979 43 4.38465979 43 1 43 C1 51.91 1 60.82 1 70 C-1.77038083 67.22961917 -3.83751816 65.01573482 -6.015625 61.890625 C-6.54414062 61.13652344 -7.07265625 60.38242187 -7.6171875 59.60546875 C-8.15601563 58.82816406 -8.69484375 58.05085938 -9.25 57.25 C-9.80429687 56.45722656 -10.35859375 55.66445313 -10.9296875 54.84765625 C-12.29006438 52.90091002 -13.64669316 50.95166452 -15 49 C-23.73089879 51.13397899 -32.42846005 53.28018444 -41 56 C-39.65852314 53.11692107 -38.12774305 50.73149818 -36.14453125 48.25 C-35.60505859 47.5590625 -35.06558594 46.868125 -34.50976562 46.15625 C-33.37375783 44.71303641 -32.23044313 43.27554591 -31.08007812 41.84375 C-30.54447266 41.1528125 -30.00886719 40.461875 -29.45703125 39.75 C-28.96178955 39.12609375 -28.46654785 38.5021875 -27.95629883 37.859375 C-26.80869219 36.04453229 -26.80869219 36.04453229 -27.21020508 33.97265625 C-28.54511972 30.63846451 -30.75550478 27.87002469 -32.875 25 C-33.32230469 24.38382812 -33.76960937 23.76765625 -34.23046875 23.1328125 C-36.45987324 20.06820338 -38.71647398 17.02453778 -41 14 C-40.67 13.34 -40.34 12.68 -40 12 C-39.31897217 12.24758057 -38.63794434 12.49516113 -37.9362793 12.75024414 C-34.85668685 13.8638151 -31.77224764 14.96329486 -28.6875 16.0625 C-27.61564453 16.45244141 -26.54378906 16.84238281 -25.43945312 17.24414062 C-24.41142578 17.60830078 -23.38339844 17.97246094 -22.32421875 18.34765625 C-21.37635498 18.68804932 -20.42849121 19.02844238 -19.4519043 19.37915039 C-16.88899365 20.26267616 -16.88899365 20.26267616 -14 19 C-12.30681243 17.10497908 -12.30681243 17.10497908 -10.6796875 14.74609375 C-10.06222656 13.89208984 -9.44476562 13.03808594 -8.80859375 12.15820312 C-8.17050781 11.26037109 -7.53242187 10.36253906 -6.875 9.4375 C-5.60432917 7.66337975 -4.33104051 5.89113047 -3.0546875 4.12109375 C-2.49249512 3.3314624 -1.93030273 2.54183105 -1.35107422 1.72827148 C-0.90521973 1.15794189 -0.45936523 0.5876123 0 0 Z " fill="#D32523" transform="translate(547,294)"/>
<path d="M0 0 C16.5 0 33 0 50 0 C50 4.29 50 8.58 50 13 C44.39 13 38.78 13 33 13 C33 33.13 33 53.26 33 74 C28.05 74 23.1 74 18 74 C18 53.87 18 33.74 18 13 C12.06 13 6.12 13 0 13 C0 8.71 0 4.42 0 0 Z " fill="#044979" transform="translate(656,594)"/>
<path d="M0 0 C16.17 0 32.34 0 49 0 C49 4.29 49 8.58 49 13 C43.39 13 37.78 13 32 13 C32 33.13 32 53.26 32 74 C27.05 74 22.1 74 17 74 C17 53.87 17 33.74 17 13 C11.39 13 5.78 13 0 13 C0 8.71 0 4.42 0 0 Z " fill="#014B7B" transform="translate(493,594)"/>
<path d="M0 0 C4.31681924 3.05774696 5.6252297 6.00723481 7 11 C7.25878906 14.23217773 7.25878906 14.23217773 7.265625 17.68359375 C7.26949219 19.56981445 7.26949219 19.56981445 7.2734375 21.49414062 C7.26570312 22.79544922 7.25796875 24.09675781 7.25 25.4375 C7.25773438 26.73494141 7.26546875 28.03238281 7.2734375 29.36914062 C7.27085937 30.62791016 7.26828125 31.88667969 7.265625 33.18359375 C7.26336914 34.32368896 7.26111328 35.46378418 7.25878906 36.63842773 C6.84434685 42.02187571 6.0041539 45.87630397 2.375 49.9375 C-2.05856514 52.64690092 -3.88066139 52.73133409 -9 52 C-13.23635545 49.74061042 -14.78645413 46.99535094 -16.38256836 42.53271484 C-17.66121854 37.28767056 -17.42776633 31.93000858 -17.375 26.5625 C-17.38660156 25.38623047 -17.39820313 24.20996094 -17.41015625 22.99804688 C-17.38354742 15.06418102 -16.61715223 8.29212966 -12.4375 1.4375 C-8.45069068 -0.91369524 -4.4904142 -0.83694916 0 0 Z " fill="#F8F1E2" transform="translate(771,605)"/>
<path d="M0 0 C4.62 0 9.24 0 14 0 C14 24.42 14 48.84 14 74 C9.38 74 4.76 74 0 74 C0 49.58 0 25.16 0 0 Z " fill="#00507F" transform="translate(418,594)"/>
<path d="M0 0 C4.62 0 9.24 0 14 0 C14 24.42 14 48.84 14 74 C9.38 74 4.76 74 0 74 C0 49.58 0 25.16 0 0 Z " fill="#00517F" transform="translate(714,594)"/>
<path d="M0 0 C12 0 12 0 15.5625 1.5625 C21.13848316 7.13848316 21.38391436 12.90476023 21.41015625 20.46679688 C21.39855469 21.61212891 21.38695312 22.75746094 21.375 23.9375 C21.38660156 25.07896484 21.39820313 26.22042969 21.41015625 27.39648438 C21.38386868 34.98044917 21.20452491 41.79547509 15.5625 47.4375 C10.24497425 50.67989375 6.52430404 50 0 50 C0 33.5 0 17 0 0 Z " fill="#F9F0DF" transform="translate(208,606)"/>
<path d="M0 0 C4.29 0 8.58 0 13 0 C13 24.09 13 48.18 13 73 C8.71 73 4.42 73 0 73 C0 48.91 0 24.82 0 0 Z " fill="#004577" transform="translate(330,594)"/>
<path d="M0 0 C0.66 0.33 1.32 0.66 2 1 C2.09164005 34.0455745 2.16208157 67.09111593 2.20426132 100.13678859 C2.20926389 104.0418762 2.2144412 107.94696355 2.21972656 111.85205078 C2.2207758 112.62945351 2.22182505 113.40685624 2.22290608 114.20781663 C2.24029126 126.78037607 2.2718185 139.35286203 2.30861118 151.92537794 C2.34607323 164.83469296 2.36824696 177.74396961 2.37635398 190.65333676 C2.38183087 198.61328589 2.39910248 206.5730273 2.43166587 214.53291246 C2.45539362 220.64595774 2.45780659 226.75884605 2.45243073 232.87193108 C2.45352839 235.37281762 2.46144788 237.87371225 2.4768219 240.37455177 C2.49683841 243.79944458 2.49189602 247.22346173 2.48101807 250.64837646 C2.49266943 251.62895987 2.5043208 252.60954328 2.51632524 253.61984134 C2.45458421 260.85321716 0.99871471 267.38548564 -2 274 C-2.66 274.33 -3.32 274.66 -4 275 C-3.78806336 274.26632745 -3.57612672 273.5326549 -3.35776776 272.77674985 C-1.39803957 265.57048013 -0.56474109 259.02080174 -0.60127258 251.57244873 C-0.59462576 250.48822136 -0.58797893 249.40399399 -0.58113068 248.28691125 C-0.56262441 244.68954844 -0.56509765 241.09252186 -0.56762695 237.49511719 C-0.55860226 234.90224238 -0.54827331 232.30937183 -0.53674316 229.71650696 C-0.5140452 224.15256889 -0.50208735 218.58869305 -0.49761391 213.02471161 C-0.4911304 204.98034046 -0.46815461 196.93608139 -0.44127061 188.89175561 C-0.39808621 175.83752086 -0.36807191 162.78329086 -0.34643555 149.72900391 C-0.32540076 137.05482657 -0.29810394 124.38068798 -0.26245117 111.70654297 C-0.26025235 110.92411581 -0.25805352 110.14168866 -0.25578807 109.33555159 C-0.24471779 105.40998817 -0.2335251 101.48442511 -0.22227156 97.55886221 C-0.12920474 65.03927373 -0.05755209 32.51967103 0 0 Z " fill="#02294C" transform="translate(736,195)"/>
<path d="M0 0 C135.3 0.33 270.6 0.66 410 1 C410 1.33 410 1.66 410 2 C408.71251364 2.00260437 408.71251364 2.00260437 407.39901745 2.00526136 C356.57804172 2.10818987 305.75707922 2.21628074 254.93612892 2.33111694 C248.84006911 2.34488725 242.74400919 2.35861424 236.64794922 2.37231445 C234.82745175 2.37640691 234.82745175 2.37640691 232.97017656 2.38058204 C213.29389299 2.42471066 193.61760364 2.46532579 173.94130994 2.50465261 C153.76605002 2.54505454 133.59080086 2.58920864 113.41555679 2.63687855 C100.95673689 2.66619691 88.49791783 2.69255482 76.03908394 2.71517897 C67.50673587 2.73095275 58.97440098 2.7503564 50.44206752 2.77266841 C45.51232173 2.7854508 40.58258614 2.79658118 35.65282822 2.80341911 C31.14630891 2.80970513 26.6398247 2.82051314 22.13332461 2.8350333 C20.49669532 2.83948765 18.86006037 2.84223245 17.22342528 2.84316199 C15.01115837 2.84465979 12.79899464 2.8521929 10.58674812 2.8613348 C9.35417593 2.86399284 8.12160374 2.86665089 6.85168087 2.86938947 C4.05326142 2.80427667 4.05326142 2.80427667 2 4 C1.34 3.34 0.68 2.68 0 2 C0 1.34 0 0.68 0 0 Z " fill="#094965" transform="translate(299,168)"/>
<path d="M0 0 C0.86033844 -0.0033284 1.72067688 -0.0066568 2.60708618 -0.01008606 C4.43808456 -0.01516395 6.26909224 -0.01749412 8.10009766 -0.01733398 C10.86767546 -0.01949503 13.63483794 -0.03756975 16.40234375 -0.05664062 C25.29218026 -0.08412127 33.86188824 -0.05613996 42.5390625 2.16796875 C42.5390625 2.49796875 42.5390625 2.82796875 42.5390625 3.16796875 C17.7890625 2.67296875 17.7890625 2.67296875 -7.4609375 2.16796875 C-7.4609375 40.77796875 -7.4609375 79.38796875 -7.4609375 119.16796875 C7.0590625 119.16796875 21.5790625 119.16796875 36.5390625 119.16796875 C36.5390625 119.49796875 36.5390625 119.82796875 36.5390625 120.16796875 C31.54377895 121.17120978 26.7795979 121.31370396 21.7109375 121.30078125 C20.88072083 121.30173798 20.05050415 121.3026947 19.19512939 121.30368042 C17.45039799 121.3043579 15.705664 121.3025339 13.9609375 121.29833984 C11.28379727 121.29295817 8.60682274 121.29831337 5.9296875 121.3046875 C4.23177046 121.30402717 2.53385353 121.30274696 0.8359375 121.30078125 C-0.36715057 121.3038176 -0.36715057 121.3038176 -1.59454346 121.30691528 C-7.23098088 121.28294706 -7.23098088 121.28294706 -9.4609375 120.16796875 C-9.48426696 104.66957019 -9.50191691 89.17117293 -9.51274967 73.67276096 C-9.51791253 66.4770658 -9.52495503 59.28138153 -9.53637695 52.08569336 C-9.5463241 45.81612181 -9.552791 39.54655814 -9.55502599 33.27697891 C-9.55633305 29.95531254 -9.55993747 26.63367409 -9.56666756 23.31201363 C-9.57387378 19.60976928 -9.57492862 15.90757244 -9.57446289 12.20532227 C-9.57805817 11.09617966 -9.58165344 9.98703705 -9.58535767 8.84428406 C-9.583983 7.84162506 -9.58260834 6.83896606 -9.58119202 5.80592346 C-9.58211381 4.92929833 -9.5830356 4.05267321 -9.58398533 3.14948368 C-9.28276951 -1.70118011 -3.7191498 0.00495492 0 0 Z " fill="#F9F8EC" transform="translate(431.4609375,695.83203125)"/>
<path d="M0 0 C1.35568336 0.00333092 1.35568336 0.00333092 2.73875427 0.00672913 C3.75973709 0.00680466 4.78071991 0.00688019 5.8326416 0.00695801 C6.94304306 0.01211929 8.05344452 0.01728058 9.19749451 0.02259827 C10.89336952 0.02472069 10.89336952 0.02472069 12.62350464 0.02688599 C16.25105891 0.03250433 19.8785525 0.04505994 23.50608826 0.05775452 C25.95856133 0.06276715 28.41103536 0.06733047 30.86351013 0.07142639 C36.89022371 0.08247971 42.91690165 0.09923568 48.94358826 0.12025452 C48.97043505 2.76615466 48.99035182 5.41178547 49.00608826 8.05775452 C49.01446716 8.81250061 49.02284607 9.5672467 49.03147888 10.34486389 C49.04011267 12.27019765 48.99583158 14.19561033 48.94358826 16.12025452 C47.94358826 17.12025452 47.94358826 17.12025452 44.34593201 17.21791077 C42.85761958 17.21123672 41.36932394 17.19927635 39.88108826 17.18275452 C39.12247498 17.1782428 38.36386169 17.17373108 37.58226013 17.16908264 C35.70266954 17.15726132 33.82311927 17.13932529 31.94358826 17.12025452 C31.94580887 17.8571904 31.94802948 18.59412628 31.95031738 19.35339355 C31.97032028 26.2843822 31.98556239 33.21536656 31.99540043 40.14637661 C32.00062821 43.71002873 32.00772395 47.27365709 32.01902771 50.83729553 C32.03193001 54.93031549 32.03681732 59.02331031 32.04124451 63.11634827 C32.04640579 64.40173996 32.05156708 65.68713165 32.05688477 67.01147461 C32.0569603 68.19262344 32.05703583 69.37377228 32.05711365 70.5907135 C32.05933426 71.63662155 32.06155487 72.6825296 32.06384277 73.76013184 C31.94358826 76.12025452 31.94358826 76.12025452 30.94358826 77.12025452 C28.26627446 77.22006665 25.62054651 77.25905327 22.94358826 77.24525452 C21.81823669 77.2510553 21.81823669 77.2510553 20.67015076 77.25697327 C15.07019879 77.24686505 15.07019879 77.24686505 13.94358826 76.12025452 C13.84977523 74.27907422 13.82614872 72.4342781 13.83006287 70.5907135 C13.8301384 69.40956467 13.83021393 68.22841583 13.83029175 67.01147461 C13.83545303 65.72608292 13.84061432 64.44069122 13.84593201 63.11634827 C13.84734695 61.80819656 13.8487619 60.50004486 13.85021973 59.1522522 C13.85404416 55.66862593 13.86387379 52.18504112 13.87492371 48.70143127 C13.88513943 45.14898744 13.88971769 41.59653692 13.89476013 38.04408264 C13.90549614 31.0694562 13.92257166 24.09485734 13.94358826 17.12025452 C12.80018982 17.13185608 11.65679138 17.14345764 10.47874451 17.15541077 C8.98786072 17.16478739 7.49697517 17.17388773 6.00608826 17.18275452 C5.25134216 17.19113342 4.49659607 17.19951233 3.71897888 17.20814514 C1.79364512 17.21677893 -0.13176755 17.17249784 -2.05641174 17.12025452 C-3.81201116 15.3646551 -3.18863094 13.0844301 -3.19313049 10.74916077 C-3.18926331 10.0466217 -3.18539612 9.34408264 -3.18141174 8.62025452 C-3.18527893 7.91771545 -3.18914612 7.21517639 -3.19313049 6.49134827 C-3.18098149 0.18601693 -3.18098149 0.18601693 0 0 Z M-2.05641174 2.12025452 C-2.05641174 6.41025452 -2.05641174 10.70025452 -2.05641174 15.12025452 C3.88358826 15.12025452 9.82358826 15.12025452 15.94358826 15.12025452 C15.94358826 35.25025452 15.94358826 55.38025452 15.94358826 76.12025452 C20.89358826 76.12025452 25.84358826 76.12025452 30.94358826 76.12025452 C30.94358826 55.99025452 30.94358826 35.86025452 30.94358826 15.12025452 C36.55358826 15.12025452 42.16358826 15.12025452 47.94358826 15.12025452 C47.94358826 10.83025452 47.94358826 6.54025452 47.94358826 2.12025452 C31.44358826 2.12025452 14.94358826 2.12025452 -2.05641174 2.12025452 Z " fill="#FCFDF3" transform="translate(658.0564117431641,591.8797454833984)"/>
<path d="M0 0 C12.27189579 -0.40456799 12.27189579 -0.40456799 17 3 C19.61429492 5.52414681 19.97469861 6.76807058 20.375 10.4375 C19.9782558 14.20656993 19.29408672 16.02618388 17 19 C13.2632157 21.49118953 11.25548181 21.2065226 6.8125 21.125 C4.564375 21.08375 2.31625 21.0425 0 21 C0 14.07 0 7.14 0 0 Z " fill="#F3EFE2" transform="translate(563,605)"/>
<path d="M0 0 C5.28 0 10.56 0 16 0 C16.99 1.65 17.98 3.3 19 5 C18.67 5.99 18.34 6.98 18 8 C17.773125 7.030625 17.54625 6.06125 17.3125 5.0625 C16.549375 4.051875 15.78625 3.04125 15 2 C10.71 1.67 6.42 1.34 2 1 C2 24.43 2 47.86 2 72 C5.3 72 8.6 72 12 72 C12 56.49 12 40.98 12 25 C14 27 14 27 14.24050903 29.02481079 C14.23606781 29.85531952 14.23162659 30.68582825 14.22705078 31.54150391 C14.22682419 32.95274033 14.22682419 32.95274033 14.22659302 34.39248657 C14.21627045 35.41023163 14.20594788 36.42797668 14.1953125 37.4765625 C14.1924826 38.51694672 14.18965271 39.55733093 14.18673706 40.62924194 C14.17551704 43.96127694 14.15040915 47.29304586 14.125 50.625 C14.11497256 52.88020446 14.1058463 55.13541312 14.09765625 57.390625 C14.07557174 62.92718629 14.04102946 68.46354799 14 74 C9.38 74 4.76 74 0 74 C0 49.58 0 25.16 0 0 Z " fill="#13396E" transform="translate(803,594)"/>
<path d="M0 0 C6.6 0 13.2 0 20 0 C20 0.33 20 0.66 20 1 C14.06 1 8.12 1 2 1 C2 24.43 2 47.86 2 72 C5.3 72 8.6 72 12 72 C12 55.5 12 39 12 22 C14.16189853 25.24284779 14.24626755 26.10096221 14.22705078 29.83862305 C14.22682419 31.30980843 14.22682419 31.30980843 14.22659302 32.81071472 C14.21627045 33.86704605 14.20594788 34.92337738 14.1953125 36.01171875 C14.1924826 37.09508011 14.18965271 38.17844147 14.18673706 39.29463196 C14.17553091 42.75903308 14.15042534 46.22317685 14.125 49.6875 C14.11497077 52.03450148 14.10584482 54.381507 14.09765625 56.72851562 C14.07559012 62.48577643 14.04105712 68.24284456 14 74 C9.38 74 4.76 74 0 74 C0 49.58 0 25.16 0 0 Z " fill="#083A6C" transform="translate(253,594)"/>
<path d="M0 0 C1.20970459 0.00523682 2.41940918 0.01047363 3.66577148 0.01586914 C4.97094727 0.0190918 6.27612305 0.02231445 7.62084961 0.02563477 C9.00952213 0.03399138 10.39819401 0.04245634 11.78686523 0.05102539 C13.17944179 0.05603873 14.57202005 0.06060193 15.96459961 0.06469727 C19.38456394 0.07653105 22.80444367 0.09301659 26.22436523 0.11352539 C26.22436523 0.77352539 26.22436523 1.43352539 26.22436523 2.11352539 C16.98436523 2.11352539 7.74436523 2.11352539 -1.77563477 2.11352539 C-1.77563477 26.53352539 -1.77563477 50.95352539 -1.77563477 76.11352539 C2.84436523 76.11352539 7.46436523 76.11352539 12.22436523 76.11352539 C12.22436523 66.21352539 12.22436523 56.31352539 12.22436523 46.11352539 C15.85436523 46.11352539 19.48436523 46.11352539 23.22436523 46.11352539 C22.89436523 47.43352539 22.56436523 48.75352539 22.22436523 50.11352539 C22.22436523 49.45352539 22.22436523 48.79352539 22.22436523 48.11352539 C19.58436523 48.11352539 16.94436523 48.11352539 14.22436523 48.11352539 C14.23222046 49.37797485 14.23222046 49.37797485 14.24023438 50.66796875 C14.25724349 53.78580475 14.26979929 56.90361716 14.27929688 60.02148438 C14.2843358 61.37272925 14.29116701 62.72396865 14.29980469 64.07519531 C14.31188943 66.01372973 14.31706352 67.95230339 14.32202148 69.89086914 C14.32987671 71.64258423 14.32987671 71.64258423 14.33789062 73.4296875 C14.22436523 76.11352539 14.22436523 76.11352539 13.22436523 77.11352539 C10.5278167 77.1867216 7.85745065 77.20595076 5.16186523 77.17602539 C4.40325195 77.17151367 3.64463867 77.16700195 2.86303711 77.16235352 C0.98344652 77.15053219 -0.89610375 77.13259617 -2.77563477 77.11352539 C-3.57063231 58.65309038 -3.88446992 40.21549911 -3.90063477 21.73852539 C-3.90313232 20.72142487 -3.90562988 19.70432434 -3.90820312 18.65640259 C-3.91405422 15.75926236 -3.91262589 12.86222911 -3.90844727 9.96508789 C-3.91043121 9.08419998 -3.91241516 8.20331207 -3.91445923 7.29573059 C-3.88676141 0.15897124 -3.88676141 0.15897124 0 0 Z " fill="#FCFBF1" transform="translate(550.775634765625,591.886474609375)"/>
<path d="M0 0 C4.62 0 9.24 0 14 0 C14 24.42 14 48.84 14 74 C9.38 74 4.76 74 0 74 C0 49.58 0 25.16 0 0 Z M1 1 C1 24.43 1 47.86 1 72 C4.63 72 8.26 72 12 72 C12 48.57 12 25.14 12 1 C8.37 1 4.74 1 1 1 Z " fill="#062965" transform="translate(418,594)"/>
<path d="M0 0 C4.62 0 9.24 0 14 0 C14 24.42 14 48.84 14 74 C9.38 74 4.76 74 0 74 C0 49.58 0 25.16 0 0 Z M1 1 C1 24.43 1 47.86 1 72 C4.63 72 8.26 72 12 72 C12 48.57 12 25.14 12 1 C8.37 1 4.74 1 1 1 Z " fill="#072A64" transform="translate(714,594)"/>
<path d="M0 0 C5.61 0 11.22 0 17 0 C17.66 1.32 18.32 2.64 19 4 C18.67 4.99 18.34 5.98 18 7 C17.34 5.02 16.68 3.04 16 1 C11.38 1 6.76 1 2 1 C2 24.43 2 47.86 2 72 C5.3 72 8.6 72 12 72 C12 56.49 12 40.98 12 25 C12.33 25 12.66 25 13 25 C13.33 41.17 13.66 57.34 14 74 C9.38 74 4.76 74 0 74 C0 49.58 0 25.16 0 0 Z " fill="#173C6E" transform="translate(355,594)"/>
<path d="M0 0 C2.04502788 3.06754182 2.66836982 5.14076024 3.5078125 8.69140625 C3.77207031 9.80064453 4.03632812 10.90988281 4.30859375 12.05273438 C4.57800781 13.21095703 4.84742188 14.36917969 5.125 15.5625 C5.40214844 16.72458984 5.67929687 17.88667969 5.96484375 19.08398438 C8 27.70081589 8 27.70081589 8 30 C3.38 30 -1.24 30 -6 30 C-5.4417407 22.87738137 -4.2620512 16.27456338 -2.4375 9.375 C-2.20353516 8.46621094 -1.96957031 7.55742188 -1.72851562 6.62109375 C-1.15887311 4.41227583 -0.58265317 2.20541448 0 0 Z " fill="#F4F0E3" transform="translate(632,611)"/>
<path d="M0 0 C2.14474882 3.21712323 2.69704388 5.44500755 3.5078125 9.19921875 C3.77207031 10.40771484 4.03632813 11.61621094 4.30859375 12.86132812 C4.57800781 14.12396484 4.84742188 15.38660156 5.125 16.6875 C5.40214844 17.96173828 5.67929688 19.23597656 5.96484375 20.54882812 C6.64893041 23.69798568 7.32520576 26.84883821 8 30 C3.05 30 -1.9 30 -7 30 C-6.0227584 25.56206795 -5.04329569 21.12464664 -4.0625 16.6875 C-3.78470703 15.42486328 -3.50691406 14.16222656 -3.22070312 12.86132812 C-2.95322266 11.65283203 -2.68574219 10.44433594 -2.41015625 9.19921875 C-2.04096069 7.52605591 -2.04096069 7.52605591 -1.66430664 5.8190918 C-1 3 -1 3 0 0 Z " fill="#F3F1E5" transform="translate(159,611)"/>
<path d="M0 0 C8.91 0 17.82 0 27 0 C27 0.33 27 0.66 27 1 C18.75 1 10.5 1 2 1 C2 24.43 2 47.86 2 72 C5.63 72 9.26 72 13 72 C13 62.76 13 53.52 13 44 C13.33 44 13.66 44 14 44 C14 53.9 14 63.8 14 74 C9.38 74 4.76 74 0 74 C0 49.58 0 25.16 0 0 Z " fill="#032963" transform="translate(549,594)"/>
<path d="M0 0 C0.33 0 0.66 0 1 0 C1 19.47 1 38.94 1 59 C4.63 59 8.26 59 12 59 C12 39.86 12 20.72 12 1 C12.33 1 12.66 1 13 1 C13.33 20.8 13.66 40.6 14 61 C9.05 61 4.1 61 -1 61 C-1.02255497 53.19424413 -1.04091738 45.38850593 -1.05181217 37.58272648 C-1.05704002 33.9585404 -1.06413587 30.3343777 -1.07543945 26.71020508 C-1.08627184 23.21540025 -1.09227758 19.72061796 -1.09487724 16.22579765 C-1.09763551 14.23760611 -1.10544688 12.24942369 -1.11329651 10.26124573 C-1.11337204 9.06007614 -1.11344757 7.85890656 -1.11352539 6.62133789 C-1.115746 5.55766495 -1.11796661 4.493992 -1.12025452 3.39808655 C-1 1 -1 1 0 0 Z " fill="#01376C" transform="translate(511,607)"/>
<path d="M0 0 C1.58206057 0.00667536 3.16410534 0.0186375 4.74609375 0.03515625 C5.55240234 0.03966797 6.35871094 0.04417969 7.18945312 0.04882812 C9.18753131 0.06065107 11.18557158 0.07858711 13.18359375 0.09765625 C13.18359375 0.42765625 13.18359375 0.75765625 13.18359375 1.09765625 C5.26359375 1.59265625 5.26359375 1.59265625 -2.81640625 2.09765625 C-2.81640625 26.51765625 -2.81640625 50.93765625 -2.81640625 76.09765625 C1.80359375 76.09765625 6.42359375 76.09765625 11.18359375 76.09765625 C11.18359375 76.42765625 11.18359375 76.75765625 11.18359375 77.09765625 C6.23359375 77.09765625 1.28359375 77.09765625 -3.81640625 77.09765625 C-5.30664861 74.11717154 -4.94377709 71.41838643 -4.94580078 68.09350586 C-4.9475531 67.37305588 -4.94930542 66.6526059 -4.95111084 65.9103241 C-4.95552038 63.52352506 -4.95259483 61.13679982 -4.94921875 58.75 C-4.94989197 57.09615566 -4.95086215 55.44231141 -4.95211792 53.78846741 C-4.95359361 50.32080138 -4.95144417 46.85316109 -4.94677734 43.38549805 C-4.94107568 38.93076756 -4.94436263 34.47609726 -4.95034981 30.02136898 C-4.95395509 26.60628298 -4.95281707 23.19121137 -4.95022202 19.77612495 C-4.94955288 18.13300126 -4.95038069 16.48987627 -4.95270157 14.84675407 C-4.95522803 12.5552713 -4.95138783 10.26388747 -4.94580078 7.97241211 C-4.94500519 6.66606308 -4.94420959 5.35971405 -4.94338989 4.01377869 C-4.75213815 -0.37823184 -4.57011334 0.11694251 0 0 Z " fill="#FCFBF0" transform="translate(805.81640625,591.90234375)"/>
<path d="M0 0 C12 0 12 0 15.5625 1.5625 C20.27942519 6.27942519 21.17872058 10.70662444 21.36328125 17.1953125 C21.36196127 19.50526998 21.34461533 21.81526541 21.3125 24.125 C21.31733398 25.87490234 21.31733398 25.87490234 21.32226562 27.66015625 C21.28883139 32.96708124 21.24992097 37.11724043 19 42 C18 40 18 40 18.421875 37.48828125 C19.16044046 33.03193698 19.22305864 28.69681053 19.25 24.1875 C19.270625 23.33607422 19.29125 22.48464844 19.3125 21.60742188 C19.34831733 15.72890277 18.67741738 10.31388688 16 5 C11.35577459 1.54383225 8.0753687 1.75942109 2 1 C2 16.51 2 32.02 2 48 C5.3 48 8.6 48 12 48 C9 50 9 50 0 50 C0 33.5 0 17 0 0 Z " fill="#F9FAF4" transform="translate(208,606)"/>
<path d="M0 0 C2.97 0.99 5.94 1.98 9 3 C9 3.33 9 3.66 9 4 C-26.64 4.495 -26.64 4.495 -63 5 C-64.1482685 7.296537 -64.11561175 8.58313167 -64.09765625 11.1328125 C-64.09443359 11.93847656 -64.09121094 12.74414062 -64.08789062 13.57421875 C-64.07951172 14.41597656 -64.07113281 15.25773437 -64.0625 16.125 C-64.05573242 17.39923828 -64.05573242 17.39923828 -64.04882812 18.69921875 C-64.03702874 20.79950909 -64.01909306 22.8997633 -64 25 C-66.3949789 21.25963455 -66.29961204 17.86472395 -66.3125 13.5 C-66.32925781 12.1903125 -66.34601563 10.880625 -66.36328125 9.53125 C-65.9745517 5.75263158 -65.66697588 4.60013685 -63 2 C-60.24751282 1.48101807 -60.24751282 1.48101807 -56.8762207 1.45410156 C-55.61513992 1.43438293 -54.35405914 1.41466431 -53.05476379 1.39434814 C-51.67843672 1.39268499 -50.30210907 1.39145412 -48.92578125 1.390625 C-47.51757399 1.37564534 -46.10938432 1.35891863 -44.70121765 1.34051514 C-40.99733683 1.29680425 -37.29369299 1.27683464 -33.58959961 1.26177979 C-29.80893926 1.24222185 -26.02853535 1.20025052 -22.24804688 1.16015625 C-14.83210013 1.08481393 -7.41626087 1.03454728 0 1 C0 0.67 0 0.34 0 0 Z " fill="#CDD9D7" transform="translate(292,484)"/>
<path d="M0 0 C5 5 5 5 5 8 C4.34 7.34 3.68 6.68 3 6 C3 6.98395752 3 7.96791504 3 8.98168945 C3 19.98779297 3 30.99389648 3 42 C4.32 42.66 5.64 43.32 7 44 C4.525 44.495 4.525 44.495 2 45 C2 53.58 2 62.16 2 71 C2.66 71.33 3.32 71.66 4 72 C2.68 72 1.36 72 0 72 C0 48.24 0 24.48 0 0 Z " fill="#FDFBF5" transform="translate(504,306)"/>
<path d="M0 0 C0 6.6 0 13.2 0 20 C-24.75 20 -49.5 20 -75 20 C-75 19.67 -75 19.34 -75 19 C-50.91 19 -26.82 19 -2 19 C-2 13.39 -2 7.78 -2 2 C-16.85 2 -31.7 2 -47 2 C-47 1.67 -47 1.34 -47 1 C-40.6279366 0.85727422 -34.25586558 0.71489279 -27.88378906 0.57275391 C-25.71484196 0.5243312 -23.54589664 0.47582886 -21.37695312 0.42724609 C-18.26432753 0.35753921 -15.15169571 0.28811616 -12.0390625 0.21875 C-11.065065 0.19687622 -10.0910675 0.17500244 -9.08755493 0.15246582 C-7.73638077 0.12243469 -7.73638077 0.12243469 -6.35791016 0.09179688 C-5.16544174 0.06514954 -5.16544174 0.06514954 -3.94888306 0.03796387 C-2.63277756 0.01232639 -1.31635518 0 0 0 Z " fill="#021B56" transform="translate(587,795)"/>
<path d="M0 0 C0.33 0.99 0.66 1.98 1 3 C20.47 3 39.94 3 60 3 C60 3.99 60 4.98 60 6 C37.23 6 14.46 6 -9 6 C-6.03490401 3.77617801 -3.18401617 1.85734277 0 0 Z " fill="#BDC5BC" transform="translate(721,482)"/>
<path d="M0 0 C5.3322911 0.32316916 8.57767039 3.15477382 12 7 C19.89156606 18.66129054 20.48148995 34.04049454 18.46484375 47.59765625 C17.17428604 53.74014679 15.51356995 58.79022386 12 64 C11.34 63.01 10.68 62.02 10 61 C11.485 60.505 11.485 60.505 13 60 C18.9232298 48.05603867 17.88472395 27.72455772 14.0390625 15.37890625 C10.95616364 8.32069043 6.88458747 4.30460199 0 1 C0 0.67 0 0.34 0 0 Z " fill="#143367" transform="translate(775,595)"/>
<path d="M0 0 C0.66 0.33 1.32 0.66 2 1 C2 15.52 2 30.04 2 45 C-1.375 40.5 -1.375 40.5 -1.2487793 36.78222656 C-1.22853195 35.96167786 -1.20828461 35.14112915 -1.18742371 34.29571533 C-1.15006607 33.41953552 -1.11270844 32.54335571 -1.07421875 31.640625 C-1.03455742 30.28405792 -1.03455742 30.28405792 -0.99409485 28.90008545 C-0.90643492 26.0160443 -0.79724992 23.13327678 -0.6875 20.25 C-0.62423049 18.29301416 -0.56236479 16.33598239 -0.50195312 14.37890625 C-0.35091048 9.58525278 -0.18056156 4.79262871 0 0 Z " fill="#F9FAF3" transform="translate(838,594)"/>
<path d="M0 0 C0.33 0 0.66 0 1 0 C1.33 19.8 1.66 39.6 2 60 C-2.95 60 -7.9 60 -13 60 C-13 59.34 -13 58.68 -13 58 C-8.71 58 -4.42 58 0 58 C0 38.86 0 19.72 0 0 Z " fill="#092F67" transform="translate(523,608)"/>
<path d="M0 0 C1.66171502 2.49257253 2.9387679 4.79516513 4.1875 7.5 C4.55230469 8.2734375 4.91710937 9.046875 5.29296875 9.84375 C6 12 6 12 5 15 C4.01 13.02 3.02 11.04 2 9 C1.67 22.53 1.34 36.06 1 50 C-3.95 50 -8.9 50 -14 50 C-14 49.67 -14 49.34 -14 49 C-9.38 49 -4.76 49 0 49 C0 32.83 0 16.66 0 0 Z " fill="#FDFEFB" transform="translate(369,619)"/>
<path d="M0 0 C0.70084717 0.24758057 1.40169434 0.49516113 2.1237793 0.75024414 C5.30741946 1.86695499 8.49723293 2.96487221 11.6875 4.0625 C12.79029297 4.45244141 13.89308594 4.84238281 15.02929688 5.24414062 C16.09599609 5.60830078 17.16269531 5.97246094 18.26171875 6.34765625 C19.24100342 6.68804932 20.22028809 7.02844238 21.22924805 7.37915039 C24.21646194 8.04850319 26.07951719 7.8227697 29 7 C28.01 8.485 28.01 8.485 27 10 C21.13190493 9.47606294 16.45126259 8.23891142 11 6 C10.67 7.32 10.34 8.64 10 10 C7.8125 9.9375 7.8125 9.9375 5 9 C2.61372642 6.43314355 0 3.61081552 0 0 Z " fill="#D01D1A" transform="translate(506,306)"/>
<path d="M0 0 C3.63 0 7.26 0 11 0 C10.67 1.32 10.34 2.64 10 4 C10 3.34 10 2.68 10 2 C7.36 2 4.72 2 2 2 C2 11.24 2 20.48 2 30 C1.34 30 0.68 30 0 30 C0 20.1 0 10.2 0 0 Z " fill="#F6F9EE" transform="translate(563,638)"/>
<path d="M0 0 C0.66 0 1.32 0 2 0 C0.79729185 2.50564197 -0.49590685 4.77485446 -2 7.125 C-4.19863433 10.87896454 -4.86720333 14.59473239 -5.5078125 18.86328125 C-6 21 -6 21 -8 23 C-8.76676311 25.02044877 -9.46795386 27.06625542 -10.125 29.125 C-10.47820312 30.22070312 -10.83140625 31.31640625 -11.1953125 32.4453125 C-11.59363281 33.70988281 -11.59363281 33.70988281 -12 35 C-12.33 35 -12.66 35 -13 35 C-14.14291057 22.42798374 -6.73700715 10.10551072 0 0 Z " fill="#E21F26" transform="translate(454,285)"/>
<path d="M0 0 C0.66 0 1.32 0 2 0 C2 7.92 2 15.84 2 24 C1.01 24 0.02 24 -1 24 C-1.02887236 20.18751574 -1.04675492 16.3750593 -1.0625 12.5625 C-1.07087891 11.47388672 -1.07925781 10.38527344 -1.08789062 9.26367188 C-1.09111328 8.22919922 -1.09433594 7.19472656 -1.09765625 6.12890625 C-1.10289307 5.17056885 -1.10812988 4.21223145 -1.11352539 3.22485352 C-1 1 -1 1 0 0 Z " fill="#EFF3E5" transform="translate(388,316)"/>
<path d="M0 0 C2.55320319 1.2766016 2.58962088 2.09992078 3.5078125 4.74609375 C3.77207031 5.50083984 4.03632812 6.25558594 4.30859375 7.03320312 C4.57800781 7.82662109 4.84742188 8.62003906 5.125 9.4375 C5.40214844 10.22705078 5.67929687 11.01660156 5.96484375 11.83007812 C8 17.70997537 8 17.70997537 8 20 C3.05 20 -1.9 20 -7 20 C-6.505 18.515 -6.505 18.515 -6 17 C-2.37 17 1.26 17 5 17 C4.45859375 15.53626953 4.45859375 15.53626953 3.90625 14.04296875 C3.43724838 12.75790431 2.96851221 11.47274296 2.5 10.1875 C2.26152344 9.54490234 2.02304687 8.90230469 1.77734375 8.24023438 C0.72931254 5.35066261 0 3.09923939 0 0 Z " fill="#143468" transform="translate(590,648)"/>
<path d="M0 0 C0.33 0.66 0.66 1.32 1 2 C-0.71498026 5.81661061 -2.88750774 9.39094695 -5 13 C-5.38027344 13.65613281 -5.76054688 14.31226563 -6.15234375 14.98828125 C-8.02478289 18.01877512 -9.60874466 19.78883738 -13 21 C-12.75 19.125 -12.75 19.125 -12 17 C-9.9375 15.75 -9.9375 15.75 -8 15 C-8.99 14.34 -9.98 13.68 -11 13 C-10.31164062 12.34644531 -10.31164062 12.34644531 -9.609375 11.6796875 C-5.83645414 8.0177349 -2.7376848 4.48980308 0 0 Z " fill="#CD1A18" transform="translate(568,357)"/>
<path d="M0 0 C2.38736912 4.44826583 3.42122673 9.06291813 4.625 13.9375 C4.85445313 14.83146484 5.08390625 15.72542969 5.3203125 16.64648438 C5.536875 17.51466797 5.7534375 18.38285156 5.9765625 19.27734375 C6.17330566 20.06359131 6.37004883 20.84983887 6.57275391 21.65991211 C7.02803371 24.15354461 7.07337949 26.47064805 7 29 C4.90284215 25.85426323 4.47995441 23.98543749 3.875 20.3125 C3.70742188 19.31863281 3.53984375 18.32476563 3.3671875 17.30078125 C3.24601562 16.54152344 3.12484375 15.78226563 3 15 C2.34 15 1.68 15 1 15 C-0.09506492 11.71480525 -0.09960608 9.26336585 -0.0625 5.8125 C-0.05347656 4.72582031 -0.04445313 3.63914062 -0.03515625 2.51953125 C-0.02355469 1.68808594 -0.01195312 0.85664062 0 0 Z " fill="#EFF4F0" transform="translate(267,617)"/>
<path d="M0 0 C2.0625 0.4375 2.0625 0.4375 4 1 C3.01 1.495 3.01 1.495 2 2 C1.67 9.26 1.34 16.52 1 24 C0.34 24.33 -0.32 24.66 -1 25 C-1.02886984 21.02084841 -1.04675406 17.04172347 -1.0625 13.0625 C-1.07087891 11.92619141 -1.07925781 10.78988281 -1.08789062 9.61914062 C-1.09111328 8.53955078 -1.09433594 7.45996094 -1.09765625 6.34765625 C-1.10289307 5.34742432 -1.10812988 4.34719238 -1.11352539 3.31665039 C-1 1 -1 1 0 0 Z " fill="#FEFBF6" transform="translate(505,279)"/>
<path d="M0 0 C1.2065625 0.495 1.2065625 0.495 2.4375 1 C4.69681125 2.06059041 4.69681125 2.06059041 6 2 C6 1.34 6 0.68 6 0 C11.73011519 1.9100384 14.34332946 7.87642109 17 13 C17 13.99 17 14.98 17 16 C16.61070312 15.50371094 16.22140625 15.00742187 15.8203125 14.49609375 C11.69836181 9.49086791 7.36382468 5.89525936 1.94140625 2.34765625 C1.30074219 1.90292969 0.66007813 1.45820313 0 1 C0 0.67 0 0.34 0 0 Z " fill="#CA1816" transform="translate(549,280)"/>
<path d="M0 0 C1.43029392 5.72117568 -0.32652875 9.37713661 -2 15 C-6.62 15 -11.24 15 -16 15 C-15.67 13.02 -15.34 11.04 -15 9 C-14.67 10.32 -14.34 11.64 -14 13 C-8.555 12.505 -8.555 12.505 -3 12 C-2.01 8.04 -1.02 4.08 0 0 Z " fill="#133468" transform="translate(148,653)"/>
<path d="M0 0 C1.18613892 0.00785522 1.18613892 0.00785522 2.39624023 0.01586914 C3.67724609 0.02070312 3.67724609 0.02070312 4.98413086 0.02563477 C5.88196289 0.03401367 6.77979492 0.04239258 7.70483398 0.05102539 C8.6065332 0.05553711 9.50823242 0.06004883 10.43725586 0.06469727 C12.67234712 0.07652315 14.90730835 0.09300319 17.14233398 0.11352539 C13.46146045 2.56744108 10.6987781 2.34155298 6.45483398 2.23852539 C5.40199219 2.22499023 5.40199219 2.22499023 4.32788086 2.21118164 C2.59921873 2.18766243 0.87073253 2.15179252 -0.85766602 2.11352539 C-0.85766602 6.40352539 -0.85766602 10.69352539 -0.85766602 15.11352539 C-1.18766602 15.11352539 -1.51766602 15.11352539 -1.85766602 15.11352539 C-2.05157331 12.80155384 -2.23762968 10.48892249 -2.42016602 8.17602539 C-2.57678711 6.24436523 -2.57678711 6.24436523 -2.73657227 4.27368164 C-2.7765332 3.23083008 -2.81649414 2.18797852 -2.85766602 1.11352539 C-1.85766602 0.11352539 -1.85766602 0.11352539 0 0 Z " fill="#E2E9E4" transform="translate(493.857666015625,591.886474609375)"/>
<path d="M0 0 C1.08174162 3.36541838 0.92538169 4.29847322 0 8 C3.63 8 7.26 8 11 8 C11.33 6.35 11.66 4.7 12 3 C12.33 3 12.66 3 13 3 C12.67 5.31 12.34 7.62 12 10 C7.38 10 2.76 10 -2 10 C-1.125 2.25 -1.125 2.25 0 0 Z " fill="#15386A" transform="translate(607,658)"/>
<path d="M0 0 C0.33 0 0.66 0 1 0 C1 6.6 1 13.2 1 20 C4.96 20 8.92 20 13 20 C13 20.66 13 21.32 13 22 C8.38 22 3.76 22 -1 22 C-0.67 14.74 -0.34 7.48 0 0 Z " fill="#10376A" transform="translate(254,646)"/>
<path d="M0 0 C2.78030572 4.17045858 3.29986321 7.98663274 2.5625 12.9375 C2.376875 13.618125 2.19125 14.29875 2 15 C-0.475 14.01 -0.475 14.01 -3 13 C-2.01 8.71 -1.02 4.42 0 0 Z " fill="#EEEFE4" transform="translate(159,611)"/>
<path d="M0 0 C1 1 1 1 1.09765625 4.16015625 C1.08605469 5.44792969 1.07445312 6.73570312 1.0625 8.0625 C1.05347656 9.35285156 1.04445313 10.64320313 1.03515625 11.97265625 C1.02355469 12.97167969 1.01195312 13.97070312 1 15 C0.34 15 -0.32 15 -1 15 C-1 10.71 -1 6.42 -1 2 C-4.3 2 -7.6 2 -11 2 C-6.77484052 -0.11257974 -4.61982692 -0.26149964 0 0 Z " fill="#DCE5E1" transform="translate(543,592)"/>
<path d="M0 0 C0.33 0 0.66 0 1 0 C1.33 1.98 1.66 3.96 2 6 C2.33 6 2.66 6 3 6 C3.6155267 12.77079371 1.68005435 18.79870635 -1 25 C-1.66 25.33 -2.32 25.66 -3 26 C-2.7834375 25.29617188 -2.566875 24.59234375 -2.34375 23.8671875 C-0.06334825 15.78020722 0.33443759 8.37332639 0 0 Z " fill="#0B2F4D" transform="translate(735,444)"/>
<path d="M0 0 C0.99 1.485 0.99 1.485 2 3 C4.88595946 3.58481121 4.88595946 3.58481121 8.125 3.6875 C9.22070312 3.75324219 10.31640625 3.81898438 11.4453125 3.88671875 C12.28835937 3.92410156 13.13140625 3.96148438 14 4 C14.33 3.34 14.66 2.68 15 2 C15.33 3.32 15.66 4.64 16 6 C13.52076199 6.02685095 11.0418116 6.04676547 8.5625 6.0625 C7.85544922 6.07087891 7.14839844 6.07925781 6.41992188 6.08789062 C4.61306441 6.09653588 2.80612397 6.05220011 1 6 C0 5 0 5 -0.0625 2.4375 C-0.041875 1.633125 -0.02125 0.82875 0 0 Z " fill="#163B6C" transform="translate(172,662)"/>
<path d="M0 0 C0.66 0.33 1.32 0.66 2 1 C2 2.32 2 3.64 2 5 C-2.95 5 -7.9 5 -13 5 C-13 4.34 -13 3.68 -13 3 C-8.71 3 -4.42 3 0 3 C0 2.01 0 1.02 0 0 Z " fill="#1D416E" transform="translate(659,663)"/>
<path d="M0 0 C1.10176129 3.35216734 0.89303058 5.75121078 0.1875 9.1875 C0.01605469 10.06792969 -0.15539062 10.94835937 -0.33203125 11.85546875 C-0.66267578 12.91701172 -0.66267578 12.91701172 -1 14 C-1.99 14.495 -1.99 14.495 -3 15 C-3.36552803 13.58622218 -3.71695495 12.16879424 -4.0625 10.75 C-4.25972656 9.96109375 -4.45695312 9.1721875 -4.66015625 8.359375 C-5.01497267 5.89605178 -4.76877544 4.34395868 -4 2 C-3.34 3.32 -2.68 4.64 -2 6 C-1.34 4.02 -0.68 2.04 0 0 Z " fill="#EFF5F1" transform="translate(288,627)"/>
<path d="M0 0 C6.95776959 1.36874156 13.38603107 3.4533129 20 6 C17 8 17 8 15 7.75 C13 7 13 7 10 5 C8.28428611 4.25967621 6.55364105 3.55336664 4.8125 2.875 C3.91144531 2.52179688 3.01039063 2.16859375 2.08203125 1.8046875 C1.39496094 1.53914063 0.70789063 1.27359375 0 1 C0 0.67 0 0.34 0 0 Z " fill="#CB110D" transform="translate(553,323)"/>
<path d="M0 0 C2.00293347 3.00440021 2.49271626 4.70993945 3.125 8.1875 C3.29257812 9.08855469 3.46015625 9.98960937 3.6328125 10.91796875 C3.75398437 11.60503906 3.87515625 12.29210937 4 13 C3.01 13.495 3.01 13.495 2 14 C1.67 12.68 1.34 11.36 1 10 C0.01 10 -0.98 10 -2 10 C-1.34 6.7 -0.68 3.4 0 0 Z " fill="#E5EFEC" transform="translate(632,611)"/>
<path d="M0 0 C0.33 0.66 0.66 1.32 1 2 C0.0390625 4.0234375 0.0390625 4.0234375 -1.375 6.375 C-3.32954394 9.6369102 -3.32954394 9.6369102 -4.53515625 13.2109375 C-5 15 -5 15 -7.0625 16.25 C-7.701875 16.4975 -8.34125 16.745 -9 17 C-7.51481201 12.95698825 -5.57122002 9.38853744 -3.375 5.6875 C-2.74335937 4.61886719 -2.11171875 3.55023437 -1.4609375 2.44921875 C-0.97882812 1.64097656 -0.49671875 0.83273437 0 0 Z " fill="#0C2B61" transform="translate(523,778)"/>
<path d="M0 0 C0.99 0.66 1.98 1.32 3 2 C3.1875 5.125 3.1875 5.125 3 8 C0.36 6.68 -2.28 5.36 -5 4 C-4.01 3.67 -3.02 3.34 -2 3 C-1.34 2.01 -0.68 1.02 0 0 Z " fill="#0E8437" transform="translate(500,369)"/>
<path d="M0 0 C0.33 0.66 0.66 1.32 1 2 C4.3 1.34 7.6 0.68 11 0 C8.36404228 2.63595772 5.93812819 3.07702112 2.375 4.125 C1.18648438 4.47820312 -0.00203125 4.83140625 -1.2265625 5.1953125 C-2.14179688 5.46085937 -3.05703125 5.72640625 -4 6 C-2.84826645 3.53199953 -1.95216435 1.95216435 0 0 Z " fill="#CB120E" transform="translate(510,344)"/>
<path d="M0 0 C3.76428019 3.31087949 4.80132193 7.24690847 6 12 C6.1875 15.0625 6.1875 15.0625 6 17 C4.09681116 14.14521674 3.5380901 12.58058692 2.875 9.3125 C2.70742188 8.50425781 2.53984375 7.69601562 2.3671875 6.86328125 C2.24601562 6.24839844 2.12484375 5.63351562 2 5 C1.34 5 0.68 5 0 5 C0 3.35 0 1.7 0 0 Z " fill="#0F2D62" transform="translate(495,717)"/>
<path d="M0 0 C-3.12988781 2.64836661 -6.0193072 4.0048268 -10 5 C-12.375 4.625 -12.375 4.625 -14 4 C-13.01 4 -12.02 4 -11 4 C-11 3.34 -11 2.68 -11 2 C-7.17010894 0.19769832 -4.21878192 -0.19622241 0 0 Z " fill="#F01D13" transform="translate(548,432)"/>
<path d="M0 0 C0.99 1.485 0.99 1.485 2 3 C2.99 3.66 3.98 4.32 5 5 C5.144375 5.61875 5.28875 6.2375 5.4375 6.875 C6.19876862 9.75090369 7.82987662 11.03988856 10 13 C5.40535725 11.81852044 3.56176046 9.54473614 0.91796875 5.8515625 C0 4 0 4 0 0 Z " fill="#0C2D62" transform="translate(442,652)"/>
<path d="M0 0 C3.96 0.33 7.92 0.66 12 1 C12 1.66 12 2.32 12 3 C8.04 3 4.08 3 0 3 C0 2.01 0 1.02 0 0 Z " fill="#FBFCF1" transform="translate(626,638)"/>
<path d="M0 0 C1.66171502 2.49257253 2.9387679 4.79516513 4.1875 7.5 C4.55230469 8.2734375 4.91710937 9.046875 5.29296875 9.84375 C6 12 6 12 5 15 C3.02 11.535 3.02 11.535 1 8 C0.67 8 0.34 8 0 8 C0 5.36 0 2.72 0 0 Z " fill="#F3F6F3" transform="translate(369,619)"/>
<path d="M0 0 C0.66 0 1.32 0 2 0 C2.33 1.98 2.66 3.96 3 6 C3.66 6 4.32 6 5 6 C5 9.63 5 13.26 5 17 C2.70053583 13.55080374 2.19230965 10.8618978 1.375 6.8125 C0.98441406 4.90404297 0.98441406 4.90404297 0.5859375 2.95703125 C0.39257812 1.98121094 0.19921875 1.00539063 0 0 Z " fill="#042B66" transform="translate(159,609)"/>
<path d="M0 0 C0.66 0.33 1.32 0.66 2 1 C-0.89066059 11.55808656 -0.89066059 11.55808656 -4 16 C-4.66 15.01 -5.32 14.02 -6 13 C-5.01 12.67 -4.02 12.34 -3 12 C-1.96683512 9.20827761 -1.96683512 9.20827761 -1.3125 5.9375 C-1.06113281 4.83277344 -0.80976562 3.72804688 -0.55078125 2.58984375 C-0.36902344 1.73519531 -0.18726563 0.88054688 0 0 Z " fill="#062460" transform="translate(791,643)"/>
<path d="M0 0 C0 0.66 0 1.32 0 2 C-0.66 2 -1.32 2 -2 2 C-2 2.66 -2 3.32 -2 4 C-4.31 4.33 -6.62 4.66 -9 5 C-8.67 4.01 -8.34 3.02 -8 2 C-5.27366306 0.89786379 -2.95855967 0 0 0 Z M-14 5 C-12.35 5 -10.7 5 -9 5 C-9 5.33 -9 5.66 -9 6 C-10.65 6 -12.3 6 -14 6 C-14 5.67 -14 5.34 -14 5 Z " fill="#EDECE1" transform="translate(758,537)"/>
<path d="M0 0 C0.33 0.66 0.66 1.32 1 2 C3.32156597 2.40729228 5.6568787 2.74438677 8 3 C8 3.33 8 3.66 8 4 C0.08 4.495 0.08 4.495 -8 5 C-5.21040099 2.90780074 -3.06775511 1.42431487 0 0 Z " fill="#EDF2F0" transform="translate(720,483)"/>
<path d="M0 0 C0.33 0 0.66 0 1 0 C1.33 1.65 1.66 3.3 2 5 C2.33 5 2.66 5 3 5 C3 8.3 3 11.6 3 15 C2.67 13.68 2.34 12.36 2 11 C1.34 11 0.68 11 0 11 C0 7.37 0 3.74 0 0 Z " fill="#F5ECD9" transform="translate(544,595)"/>
<path d="M0 0 C1.1875 1.5 1.1875 1.5 2 4 C1.27101296 6.78824238 0.1843275 9.37665092 -1 12 C-1.33 12 -1.66 12 -2 12 C-2.17835515 7.45194365 -1.99785435 4.1205746 0 0 Z " fill="#E61C26" transform="translate(443,308)"/>
<path d="M0 0 C2.64 0.99 5.28 1.98 8 3 C6.68 3.33 5.36 3.66 4 4 C4 4.99 4 5.98 4 7 C0 2.25 0 2.25 0 0 Z " fill="#C91612" transform="translate(506,306)"/>
<path d="M0 0 C0.66 0 1.32 0 2 0 C1.49396008 2.16874252 1.00016187 3.99967627 0 6 C-2.0625 6.625 -2.0625 6.625 -4 7 C-2.92598892 4.08482708 -2.22189824 2.22189824 0 0 Z " fill="#CE1D1B" transform="translate(545,297)"/>
<path d="M0 0 C0.33 0 0.66 0 1 0 C1.33 2.31 1.66 4.62 2 7 C3.98 7 5.96 7 8 7 C8 7.33 8 7.66 8 8 C1.25 8.125 1.25 8.125 -1 7 C-0.67 4.69 -0.34 2.38 0 0 Z " fill="#E5E7DE" transform="translate(627,631)"/>
<path d="M0 0 C2.29633824 3.44450737 2.54016485 5.93812283 3 10 C2.34 10 1.68 10 1 10 C1 8.35 1 6.7 1 5 C0.34 5 -0.32 5 -1 5 C-0.67 3.35 -0.34 1.7 0 0 Z " fill="#DCEAE7" transform="translate(159,611)"/>
<path d="M0 0 C1.10740461 3.32221382 0.97233311 5.64103108 0 9 C-0.66 9.66 -1.32 10.32 -2 11 C-1.85892253 9.54119891 -1.71197585 8.08296449 -1.5625 6.625 C-1.48128906 5.81289063 -1.40007812 5.00078125 -1.31640625 4.1640625 C-1 2 -1 2 0 0 Z " fill="#092B61" transform="translate(150,598)"/>
</svg>
